<?xml version="1.0" standalone="no"?>
<!DOCTYPE svg PUBLIC "-//W3C//DTD SVG 1.1//EN" "http://www.w3.org/Graphics/SVG/1.1/DTD/svg11.dtd" >
<svg>
<metadata>
Created by FontForge 20110222 at Fri May 31 14:38:02 2013
 By Ubuntu
(c) 1987, 1990, 1991, 1995, 1998, 2001, 2002 Adobe Systems Incorporated. All rights reserved.
</metadata>
<defs>
<font id="LetterGothicStd-BoldSlanted" horiz-adv-x="600" >
  <font-face 
    font-family="Letter Gothic Std"
    font-weight="700"
    font-style="oblique"
    font-stretch="normal"
    units-per-em="1000"
    panose-1="2 11 5 9 2 2 2 10 3 4"
    ascent="742"
    descent="-258"
    x-height="535"
    cap-height="720"
    bbox="-188 -288 752 973"
    underline-thickness="50"
    underline-position="-50"
    slope="-12"
    unicode-range="U+0020-FB02"
  />
<missing-glyph 
d="M119 0v700h500v-700h-500zM369 395l170 255h-340zM399 350l170 -255v510zM199 50h340l-170 255zM169 605v-510l170 255z" />
    <glyph glyph-name=".notdef" 
d="M119 0v700h500v-700h-500zM369 395l170 255h-340zM399 350l170 -255v510zM199 50h340l-170 255zM169 605v-510l170 255z" />
    <glyph glyph-name=".null" horiz-adv-x="0" 
 />
    <glyph glyph-name="nonmarkingreturn" 
 />
    <glyph glyph-name="space" unicode=" " 
 />
    <glyph glyph-name="exclam" unicode="!" 
d="M502 720l-120 -501h-67l89 501h98zM234 64q7 32 35.5 54.5t61.5 22.5t52 -22t12 -55t-35.5 -55.5t-61.5 -22.5t-52 22.5t-12 55.5z" />
    <glyph glyph-name="quotedbl" unicode="&#x22;" 
d="M266 720h138l-28 -130l-69 -129h-54l-15 129zM502 720h138l-28 -130l-69 -129h-54l-15 129z" />
    <glyph glyph-name="numbersign" unicode="#" 
d="M255 805h75l-166 -901h-75l60 326h-133l15 66h130l24 132h-131l12 66h132zM341 -96h-75l166 901h75l-57 -311h133l-13 -66h-133l-24 -132h134l-12 -66h-134z" />
    <glyph glyph-name="dollar" unicode="$" 
d="M402 328l-43 -199q44 12 71.5 45t27.5 79q0 45 -56 75zM293 130l48 226q-111 41 -111 132q0 69 54 118.5t123 61.5l16 74h67l-16 -73q79 -11 133 -70l-56 -57q-39 49 -91 61l-42 -198q60 -28 88 -61.5t28 -79.5q0 -82 -55 -135.5t-134 -65.5l-19 -93h-67l19 93
q-86 6 -146 79l58 54q48 -57 103 -66zM357 431l36 169q-87 -27 -87 -103q0 -38 51 -66z" />
    <glyph glyph-name="percent" unicode="%" 
d="M508 184q10 51 -26 51q-42 0 -73 -47.5t-41 -95.5q-11 -51 28 -51t70.5 48.5t41.5 94.5zM601 734h72l-537 -748h-72zM375 628q10 51 -26 51q-42 0 -73 -47.5t-41 -95.5q-11 -51 28 -51t70.5 48.5t41.5 94.5zM299 102q15 74 69 131t125 57q50 0 73 -28.5t13 -78.5
q-17 -77 -70.5 -137t-126.5 -60q-53 0 -74 31.5t-9 84.5zM166 546q15 74 69 131t125 57q50 0 73 -28.5t13 -78.5q-17 -77 -70.5 -137t-126.5 -60q-53 0 -74 31.5t-9 84.5z" />
    <glyph glyph-name="ampersand" unicode="&#x26;" 
d="M402 120l-93 208q-33 -31 -53.5 -54t-41.5 -57t-28 -66q-10 -46 9 -74t65 -28q79 0 142 71zM483 129l66 -99l-62 -53l-57 88q-84 -79 -183 -79q-76 0 -114 44.5t-22 119.5q14 67 57 122t115 121q-45 107 -30 177q18 82 69 123t98 41q57 0 83.5 -41t14.5 -99
q-8 -41 -34 -80.5t-47.5 -61.5t-66.5 -64l78 -190q8 20 18 50q9 30 29 120h73q-36 -160 -85 -239zM345 450q6 6 24 26.5t26 30t20 26.5t19 32.5t10 32.5q5 26 -3 49.5t-33 23.5q-29 0 -50 -29.5t-28 -61.5q-13 -57 15 -130z" />
    <glyph glyph-name="quotesingle" unicode="'" 
d="M384 720h138l-28 -130l-69 -130h-54l-15 130z" />
    <glyph glyph-name="parenleft" unicode="(" 
d="M405 -29l-47 -49q-85 63 -113 178.5t1 231.5q26 125 100.5 235.5t186.5 174.5l25 -50q-186 -115 -237 -360q-52 -245 84 -361z" />
    <glyph glyph-name="parenright" unicode=")" 
d="M336 692l47 50q85 -64 113 -179t0 -231q-27 -125 -101.5 -236t-186.5 -174l-25 49q185 114 238 361q51 246 -85 360z" />
    <glyph glyph-name="asterisk" unicode="*" 
d="M417 720h71l-39 -185l191 53l7 -65l-196 -53l85 -146l-62 -42l-84 143l-141 -143l-46 42l146 146l-174 53l34 65l169 -53z" />
    <glyph glyph-name="plus" unicode="+" 
d="M645 393v-66h-240v-237h-70v237h-240v66h240v237h70v-237h240z" />
    <glyph glyph-name="comma" unicode="," 
d="M208 -112l15 68q40 8 70 32q-27 2 -42 21.5t-9 47.5q7 34 34.5 56t61.5 22q36 0 53.5 -27t9.5 -64q-12 -58 -69.5 -99.5t-123.5 -56.5z" />
    <glyph glyph-name="hyphen" unicode="-" 
d="M500 327h-260l13 63h260z" />
    <glyph glyph-name="period" unicode="." 
d="M234 64q7 32 35.5 54.5t61.5 22.5t52 -22t12 -55t-35.5 -55.5t-61.5 -22.5t-52 22.5t-12 55.5z" />
    <glyph glyph-name="slash" unicode="/" 
d="M187 -27h-75l301 774h75z" />
    <glyph glyph-name="zero" unicode="0" 
d="M243 360q-6 -26 -8.5 -40t-8.5 -46.5t-6.5 -53t-1 -50t5.5 -48t15.5 -37t27.5 -27.5t43 -9q28 0 52 12t51.5 43.5t52.5 96t45 159.5q20 92 23 155.5t-9.5 96t-32.5 46t-49 13.5q-137 0 -198 -303q-1 -6 -2 -8zM456 734q43 0 73.5 -16t47 -39t24.5 -60t9 -67t-4 -73
t-9 -65t-11 -54q-7 -30 -9 -40t-11.5 -46.5t-17 -55.5t-22 -54.5t-29 -55.5t-36 -46.5t-45 -40.5t-54.5 -24.5t-65 -10.5t-60 11t-43 26t-27.5 42t-15.5 48.5t-5 57t1 54.5t6.5 54.5t7.5 45t7 35.5q24 113 50 174q83 200 238 200z" />
    <glyph glyph-name="one" unicode="1" 
d="M499 742l-145 -679h129l-13 -63h-339l13 63h135l127 597l-150 -43l12 57z" />
    <glyph glyph-name="two" unicode="2" 
d="M188 63h328l-13 -63h-403l7 32q24 110 78.5 176.5t168.5 148.5q104 74 141 116q41 45 50 86q11 51 -11 81.5t-72 30.5q-62 0 -104 -43t-58 -107h-75q26 95 91.5 154t159.5 59q81 0 121 -46.5t23 -127.5q-4 -20 -13 -39.5t-17 -34t-25 -33.5t-26 -29t-32.5 -29t-31 -25
t-35 -26.5t-32.5 -24.5l-62 -47q-65 -49 -103 -96.5t-55 -112.5z" />
    <glyph glyph-name="three" unicode="3" 
d="M323 354l14 63q62 -3 117 35t68 100q11 52 -18 85.5t-81 33.5q-44 0 -87 -30.5t-72 -73.5l-56 36q45 62 106.5 96.5t129.5 34.5q80 0 124.5 -54.5t27.5 -133.5q-20 -96 -128 -155q116 -56 88 -189q-21 -98 -98 -157t-176 -59q-72 0 -115.5 35t-70.5 102l74 39
q13 -55 43 -84t85 -29q66 0 116.5 38.5t64.5 104.5q17 84 -27.5 127t-128.5 35z" />
    <glyph glyph-name="four" unicode="4" 
d="M579 734l-103 -485h103l-13 -63h-103l-40 -186h-75l40 186h-287l10 49l371 499h97zM401 249l81 383h-2l-280 -383h201z" />
    <glyph glyph-name="five" unicode="5" 
d="M613 720l-13 -63h-255l-74 -252q61 46 130 46q86 0 130 -62.5t21 -167.5q-20 -97 -92.5 -166t-168.5 -69q-115 0 -168 120l67 43q12 -43 43 -71.5t76 -28.5q60 0 107 51.5t60 114.5q17 84 -11.5 128.5t-75.5 44.5q-72 0 -140 -82l-73 15l115 399h322z" />
    <glyph glyph-name="six" unicode="6" 
d="M486 234q14 67 -6 114.5t-83 47.5q-58 0 -109.5 -55t-66.5 -124q-6 -40 -4 -77t26.5 -64t65.5 -27q70 0 115.5 55.5t61.5 129.5zM650 690l-50 -62q-18 15 -27.5 21.5t-27.5 14t-37 7.5q-58 0 -115 -51t-91.5 -114t-49.5 -120q81 73 169 73t123.5 -66.5t16.5 -157.5
q-21 -100 -92 -174.5t-168 -74.5q-62 0 -99.5 29.5t-48 79.5t-8.5 101t15 110q23 107 64.5 191.5t91.5 135t103 76t105 25.5q64 0 126 -44z" />
    <glyph glyph-name="seven" unicode="7" 
d="M246 720h404l-434 -720h-81l404 657h-306z" />
    <glyph glyph-name="eight" unicode="8" 
d="M187 196q-15 -69 19 -108t104 -39t121 39t66 108q14 68 -20.5 107.5t-103.5 39.5t-120.5 -39.5t-65.5 -107.5zM545 539q13 61 -14 96.5t-88 35.5q-63 0 -105 -38t-56 -102q-12 -57 17.5 -91t86.5 -34q60 0 102.5 36t56.5 97zM112 196q13 60 51.5 110.5t94.5 70.5
q-37 40 -48.5 75.5t0.5 92.5q18 86 88 137.5t158 51.5q91 0 137 -52.5t26 -143.5q-11 -53 -38 -88t-79 -73q48 -20 65 -70.5t5 -110.5q-20 -92 -92.5 -151t-182.5 -59q-113 0 -158.5 60t-26.5 150z" />
    <glyph glyph-name="nine" unicode="9" 
d="M266 486q-14 -66 6 -114t83 -48q59 0 110.5 55t66.5 125q14 64 -7 115.5t-81 51.5q-70 0 -116.5 -55.5t-61.5 -129.5zM103 30l50 62q49 -43 92 -43q45 0 89 29.5t76.5 75t56 92.5t34.5 89q-82 -74 -169 -74q-88 0 -124 66.5t-17 157.5q21 100 92.5 174.5t168.5 74.5
q62 0 99.5 -29.5t48 -79.5t8.5 -101t-15 -110q-43 -202 -146.5 -315t-217.5 -113q-64 0 -126 44z" />
    <glyph glyph-name="colon" unicode=":" 
d="M234 64q7 32 35.5 54.5t61.5 22.5t52 -22t12 -55t-35.5 -55.5t-61.5 -22.5t-52 22.5t-12 55.5zM306 403q7 32 35.5 54.5t61.5 22.5t52 -22t12 -55t-35.5 -55.5t-61.5 -22.5t-52 22.5t-12 55.5z" />
    <glyph glyph-name="semicolon" unicode=";" 
d="M208 -112l15 68q40 8 70 32q-27 2 -42 21.5t-9 47.5q7 34 34.5 56t61.5 22q36 0 53.5 -27t9.5 -64q-12 -58 -69.5 -99.5t-123.5 -56.5zM316 403q7 32 35.5 54.5t61.5 22.5t52 -22t12 -55t-35.5 -55.5t-61.5 -22.5t-52 22.5t-12 55.5z" />
    <glyph glyph-name="less" unicode="&#x3c;" 
d="M545 720l42 -52l-333 -308l333 -308l-42 -52l-393 360z" />
    <glyph glyph-name="equal" unicode="=" 
d="M645 452v-66h-550v66h550zM645 334v-66h-550v66h550z" />
    <glyph glyph-name="greater" unicode="&#x3e;" 
d="M152 668l42 52l393 -360l-393 -360l-42 52l333 308z" />
    <glyph glyph-name="question" unicode="?" 
d="M378 216h-75l22 106q9 44 31.5 69.5t86.5 66.5q34 22 51 44t25 56q11 51 -11 82t-72 31q-49 0 -83 -30.5t-45 -79.5h-75q21 80 79 126.5t138 46.5q83 0 122 -48t21 -131q-10 -46 -31.5 -76t-61.5 -59q-19 -15 -42.5 -30t-31 -21t-15 -17.5t-11.5 -29.5zM236 64
q7 32 35.5 54.5t61.5 22.5t52 -22t12 -55t-35.5 -55.5t-61.5 -22.5t-52 22.5t-12 55.5z" />
    <glyph glyph-name="at" unicode="@" 
d="M547 137l13 -67q-147 -84 -285 -84q-53 0 -97.5 18t-78 56t-44 97t4.5 140q13 60 38.5 121t65 118t86.5 101t108 70.5t125 26.5q109 0 174 -88t37 -220q-12 -55 -38.5 -108.5t-74.5 -95.5t-104 -42q-31 0 -45.5 9t-33.5 35q-35 -24 -57 -34t-53 -10q-43 0 -64 27t-12 71
q9 45 38.5 96.5t66.5 84.5q59 53 185 53h45l-62 -164q-1 -4 -6 -16.5t-9 -23t-5 -16.5q-4 -20 2.5 -34.5t24.5 -14.5q45 0 79 59.5t46 116.5q12 68 4 114t-35.5 74t-57.5 40t-62 12q-51 0 -99 -23t-85 -59.5t-67 -84t-49.5 -96t-29.5 -95.5q-25 -118 16 -179t145 -61
q116 0 250 76zM440 419l11 31q-56 -1 -103 -51.5t-60 -114.5q-3 -15 1.5 -28t18.5 -13q69 0 132 176z" />
    <glyph glyph-name="A" unicode="A" 
d="M467 780l89 -780h-81l-19 212h-219l-109 -212h-81zM421 566l-153 -291h183z" />
    <glyph glyph-name="B" unicode="B" 
d="M196 63h126q55 0 101 33t59 96q14 65 -18.5 108t-113.5 43h-94zM314 0h-206l153 720h151q16 0 29.5 -0.5t32 -2.5t32 -6t30.5 -10.5t27 -16t22 -23t14.5 -31t5 -40.5t-5.5 -52q-22 -102 -128 -155q58 -31 80 -75t7 -112q-17 -82 -84.5 -139t-159.5 -57zM404 657h-81
l-54 -251h87q54 0 105 37t64 98q4 17 4.5 32t-3.5 26t-7.5 19.5t-12.5 14.5t-14.5 10.5t-18 7t-18 4t-19 2t-17 0.5h-15.5z" />
    <glyph glyph-name="C" unicode="C" 
d="M625 564h-75q9 46 -14 76.5t-68 30.5q-161 0 -230 -317q-64 -305 90 -305q55 0 95.5 36t52.5 91h75q-24 -89 -87 -139.5t-152 -50.5q-225 0 -148 370q12 54 26.5 101t41 100t59 90t82 62t107.5 25q75 0 115.5 -47.5t29.5 -122.5z" />
    <glyph glyph-name="D" unicode="D" 
d="M112 0l153 720h183q55 0 91.5 -16.5t61 -58t23.5 -111t-20 -174.5q-42 -199 -119 -279.5t-201 -80.5h-172zM327 657l-127 -594h92q45 0 74.5 9t61 38.5t56 90.5t45.5 159q17 80 19.5 136.5t-5.5 87.5t-29 48t-42 21t-55 4h-90z" />
    <glyph glyph-name="E" unicode="E" 
d="M666 720l-13 -63h-299l-55 -256h215l-13 -63h-215l-59 -275h306l-13 -63h-381l153 720h374z" />
    <glyph glyph-name="F" unicode="F" 
d="M691 720l-13 -63h-311l-53 -250h233l-14 -63h-233l-73 -344h-75l153 720h386z" />
    <glyph glyph-name="G" unicode="G" 
d="M520 297h-170l14 63h245l-80 -374h-75l15 70q-73 -70 -166 -70q-17 0 -30.5 1.5t-35.5 9t-37.5 20.5t-31 40t-21.5 63.5t-3 94t18 129.5q44 206 122 298t188 92q88 0 122 -54.5t17 -143.5h-75q16 54 -1.5 94.5t-71.5 40.5q-43 0 -79 -24t-58 -55.5t-41.5 -80t-28 -81
t-17.5 -75.5q-7 -33 -11 -58t-8.5 -65t-0.5 -68.5t13 -56.5t31.5 -43t56.5 -15q60 0 114.5 50t75.5 150z" />
    <glyph glyph-name="H" unicode="H" 
d="M328 720l-67 -315h250l67 315h75l-153 -720h-75l73 342h-250l-73 -342h-75l153 720h75z" />
    <glyph glyph-name="I" unicode="I" 
d="M588 720l-13 -63h-98l-127 -594h98l-13 -63h-270l13 63h97l127 594h-97l13 63h270z" />
    <glyph glyph-name="J" unicode="J" 
d="M402 657l13 63h208l-98 -463q-6 -28 -9.5 -43.5t-14.5 -48.5t-22.5 -53t-32 -46.5t-45 -42t-60 -26.5t-78.5 -11q-91 0 -130 54.5t-14 167.5l22 101h75l-28 -129q-14 -63 8.5 -97t77.5 -34q132 0 164 152l97 456h-133z" />
    <glyph glyph-name="K" unicode="K" 
d="M357 720l-67 -317q46 5 141.5 98t172.5 228l66 -39l-80 -99q-87 -108 -139 -154.5t-100 -73.5l234 -363h-100l-203 339h-6l-72 -339h-75l153 720h75z" />
    <glyph glyph-name="L" unicode="L" 
d="M383 720l-140 -657h312l-13 -63h-387l153 720h75z" />
    <glyph glyph-name="M" unicode="M" 
d="M377 361l227 359h74l-153 -720h-75l116 548h-2l-223 -353l-72 353l-2 -2l-116 -546h-75l153 720h73z" />
    <glyph glyph-name="N" unicode="N" 
d="M115 0l153 720h87l105 -538h3l114 538h75l-154 -727h-71l-113 581l-2 -2l-122 -572h-75z" />
    <glyph glyph-name="O" unicode="O" 
d="M156 360q19 88 44.5 154.5t53.5 107.5t62.5 66.5t67.5 35.5t72 10q50 0 85 -17.5t51.5 -50.5t24 -68t4 -82t-8.5 -80.5t-14 -75.5q-6 -28 -8.5 -39t-11.5 -46.5t-16.5 -55t-22 -54t-29.5 -55.5t-38 -47.5t-47.5 -41t-57.5 -25t-70 -10.5q-46 0 -78.5 16t-50.5 39
t-26.5 60.5t-9.5 67.5t4 73t9 64t11 54zM310 49q31 0 57.5 12.5t55.5 44.5t54.5 96t45.5 158q27 129 23 192q-8 119 -103 119q-150 0 -210 -301q-1 -7 -2 -10q-30 -143 -21 -209q13 -102 100 -102z" />
    <glyph glyph-name="P" unicode="P" 
d="M134 0l153 720h173q98 0 139.5 -57t19.5 -163q-23 -110 -99.5 -163.5t-187.5 -53.5h-63l-60 -283h-75zM283 346h83q67 0 115 39.5t63 113.5q34 158 -107 158h-88z" />
    <glyph glyph-name="Q" unicode="Q" 
d="M297 -14q-37 0 -65.5 10.5t-47 25.5t-30 41.5t-17.5 47.5t-6 55.5t1 55t7 55t8 45.5t8 38q23 109 56 185t73.5 116t81.5 56.5t90 16.5q225 0 146 -362l-3 -12q-25 -113 -55 -185t-83 -121l64 -114h-92l-35 70q-48 -24 -101 -24zM230 360q-67 -311 80 -311
q71 0 124.5 71.5t89.5 239.5q20 92 21.5 156t-13.5 96.5t-36.5 45.5t-52.5 13q-151 0 -213 -311z" />
    <glyph glyph-name="R" unicode="R" 
d="M131 0l153 720h187q51 0 85.5 -17.5t49 -41.5t20 -55.5t4 -52t-5.5 -37.5q-27 -126 -171 -199l127 -317h-91l-111 300q-18 -1 -54.5 -1.5t-54.5 -0.5l-63 -298h-75zM283 362h71q78 0 128.5 40t67.5 118q15 73 -14 105t-116 32h-74z" />
    <glyph glyph-name="S" unicode="S" 
d="M639 644l-57 -54q-22 25 -38 39.5t-43.5 28t-56.5 13.5q-49 0 -89.5 -30.5t-50.5 -79.5q-7 -34 6 -62.5t70 -68.5l50 -35q88 -62 113 -101.5t12 -101.5q-21 -96 -90.5 -151t-165.5 -55q-126 0 -193 117l68 46q18 -45 53.5 -72.5t84.5 -27.5q57 0 105 38t61 95
q10 47 -5.5 73t-93.5 81l-56 39q-56 39 -82 79.5t-13 101.5q17 82 82.5 130t149.5 48q102 0 179 -90z" />
    <glyph glyph-name="T" unicode="T" 
d="M694 720l-13 -63h-205l-140 -657h-75l140 657h-201l13 63h481z" />
    <glyph glyph-name="U" unicode="U" 
d="M577 720h75l-113 -531q-14 -65 -54 -112.5t-88.5 -69t-99.5 -21.5q-26 0 -49.5 6t-48.5 22t-38.5 43.5t-19.5 70t8 101.5l104 491h75l-113 -531q-15 -72 15 -106t80 -34q65 0 103.5 41.5t52.5 107.5z" />
    <glyph glyph-name="V" unicode="V" 
d="M320 109l259 611h83l-317 -727h-103l-6 727h82v-611h2z" />
    <glyph glyph-name="W" unicode="W" 
d="M407 519l37 -361h2l155 562h81l-209 -727h-86l-25 312l-158 -312h-83l94 727h81l-81 -562h2z" />
    <glyph glyph-name="X" unicode="X" 
d="M245 720h86l63 -279l181 279h87l-246 -357l98 -363h-87l-66 288l-188 -288h-86l253 364z" />
    <glyph glyph-name="Y" unicode="Y" 
d="M366 394l207 326h83l-272 -416l-65 -304h-75l65 304l-96 416h83z" />
    <glyph glyph-name="Z" unicode="Z" 
d="M267 720h375l-11 -53l-425 -604h320l-13 -63h-410l11 54l429 603h-289z" />
    <glyph glyph-name="bracketleft" unicode="[" 
d="M436 -112h-292l182 854h292l-14 -63h-217l-154 -728h217z" />
    <glyph glyph-name="backslash" unicode="\" 
d="M413 -27l-301 774h75l301 -774h-75z" />
    <glyph glyph-name="bracketright" unicode="]" 
d="M115 -112l14 63h217l154 728h-217l14 63h292l-182 -854h-292z" />
    <glyph glyph-name="asciicircum" unicode="^" 
d="M256 357h-74l164 323h66l164 -323h-74l-123 242z" />
    <glyph glyph-name="underscore" unicode="_" 
d="M600 -125h-600v50h600v-50z" />
    <glyph glyph-name="grave" unicode="`" 
d="M382 775l147 -142l-49 -49l-165 129z" />
    <glyph glyph-name="a" unicode="a" 
d="M453 331l11 51q10 45 -9 73t-61 28q-11 0 -24 -2t-23 -4t-25.5 -7.5t-22.5 -8t-25 -9.5t-23 -9l-3 66q102 37 162 37q74 0 108 -51.5t19 -121.5l-49 -232q-16 -80 -8 -145l-72 -9l-5 67q-68 -65 -146 -65q-74 0 -106 50.5t-16 124.5q17 81 75.5 137t136.5 56
q48 0 106 -26zM414 146l26 122q-54 26 -97 26q-53 0 -87.5 -39t-46.5 -95q-9 -42 6 -75t55 -33q27 0 56 16.5t44 30.5t44 45v2z" />
    <glyph glyph-name="b" unicode="b" 
d="M272 742h75l-48 -226q63 30 120 30q35 0 67.5 -14t61 -46.5t36.5 -85t-5 -128.5q-16 -75 -48 -132t-71.5 -88.5t-78.5 -47t-77 -15.5q-43 0 -65 13t-53 48l-29 -60l-69 9q43 77 68 199zM283 440l-63 -294q12 -44 33 -69t63 -25q50 0 106 50.5t81 166.5
q23 105 -10.5 159.5t-98.5 54.5q-48 0 -111 -43z" />
    <glyph glyph-name="c" unicode="c" 
d="M500 140l39 -53q-55 -49 -104 -73.5t-107 -24.5q-40 0 -75 13t-65.5 44t-38.5 83.5t6 132.5q31 147 113 215.5t175 68.5q118 0 172 -119l-74 -43q-29 99 -111 99q-64 0 -119.5 -52t-79.5 -162q-24 -114 11.5 -165.5t97.5 -51.5q68 0 160 88z" />
    <glyph glyph-name="d" unicode="d" 
d="M510 -2l-73 -9l-4 60q-46 -35 -73 -47.5t-70 -12.5q-38 0 -70 14.5t-59 47.5t-33 87t8 133q15 72 48 128t73.5 86.5t79.5 45.5t74 15q56 0 106 -31l49 227h75l-117 -551q-24 -115 -14 -193zM439 144l62 295q-44 44 -91 44q-65 0 -121.5 -55t-78.5 -160q-11 -65 -7.5 -107
t22.5 -66t39 -33.5t41 -9.5q76 0 134 92z" />
    <glyph glyph-name="e" unicode="e" 
d="M571 248h-356q-37 -196 110 -196q74 0 179 57l18 -67q-129 -53 -216 -53q-57 0 -96 23.5t-55.5 62t-20.5 88t9 101.5q25 117 99 199.5t186 82.5q50 0 84.5 -21.5t49 -51.5t20 -69t3.5 -65.5t-6 -49.5zM227 311h282q13 70 -13.5 121t-86.5 51q-114 0 -182 -172z" />
    <glyph glyph-name="f" unicode="f" 
d="M683 697l-16 -76q-8 4 -36 19.5t-48 23t-41 7.5q-95 0 -119 -110l-13 -60h172l-13 -63h-172l-93 -438h-75l93 438h-133l13 63h133l11 51q19 89 78.5 135.5t125.5 46.5q59 0 133 -37z" />
    <glyph glyph-name="g" unicode="g" 
d="M555 546h71q-38 -77 -65 -200l-63 -294q-10 -48 -32 -86.5t-47.5 -62t-56.5 -39t-57.5 -21.5t-51.5 -6q-46 0 -86.5 23t-65.5 59l63 46q35 -65 112 -65q56 0 94.5 43t51.5 105l9 42q-78 -45 -137 -45q-62 0 -100.5 36.5t-45.5 90.5t3 114q23 107 89.5 183.5t169.5 76.5
q66 0 121 -47zM450 178l51 239q-13 28 -41.5 47t-61.5 19q-46 0 -83.5 -31t-57.5 -71t-29 -86q-17 -79 6 -133t77 -54q35 0 75.5 20.5t63.5 49.5z" />
    <glyph glyph-name="h" unicode="h" 
d="M118 0l158 742h75l-61 -284q85 88 180 88q23 0 38.5 -3.5t32.5 -17.5t24 -39t6 -70.5t-14 -108.5l-65 -307h-75l67 313q35 170 -32 170q-39 0 -81 -29t-69 -68q-20 -28 -33.5 -63.5t-18.5 -55.5t-15 -68l-42 -199h-75z" />
    <glyph glyph-name="i" unicode="i" 
d="M276 0l100 472h-152l14 63h227l-114 -535h-75zM467 734q26 0 40.5 -18t9.5 -45q-6 -27 -28.5 -45t-48.5 -18t-40.5 18t-8.5 45q5 27 27 45t49 18z" />
    <glyph glyph-name="j" unicode="j" 
d="M84 52h75q-18 -74 -4.5 -113t66.5 -39q22 0 42 9.5t32.5 22.5t22.5 28t14 24t5 12l101 476h-155l14 63h230l-112 -524q-17 -82 -80 -128t-127 -46q-84 0 -115 57.5t-9 157.5zM526 734q26 0 40 -18t9 -45q-6 -27 -28 -45t-48 -18q-27 0 -41.5 18t-8.5 45q5 27 27.5 45
t49.5 18z" />
    <glyph glyph-name="k" unicode="k" 
d="M530 535h95q-37 -34 -84 -79t-68 -64.5t-52 -46.5t-64 -55l201 -290h-99l-158 246l-41 -34l-45 -212h-75l158 742h75l-94 -441q177 150 251 234z" />
    <glyph glyph-name="l" unicode="l" 
d="M268 0l144 679h-152l14 63h227l-158 -742h-75z" />
    <glyph glyph-name="m" unicode="m" 
d="M68 0l78 369q16 78 16 177h75l1 -48q65 48 115 48q35 0 49.5 -9.5t31.5 -39.5q66 50 113 50q54 0 79 -32.5t14 -86.5l-91 -428h-75l91 428q6 27 -4 41.5t-33 14.5q-47 0 -91 -56l-91 -428h-75l90 422q13 61 -29 61q-26 0 -54.5 -19.5t-45.5 -45.5l-89 -418h-75z" />
    <glyph glyph-name="n" unicode="n" 
d="M233 223l-47 -223h-75l57 269q35 167 33 266h72l-4 -98q39 49 94.5 79t110.5 30q61 0 84.5 -48.5t8.5 -120.5l-80 -377h-75l75 355q6 27 8 42.5t1.5 39t-12.5 35t-35 11.5q-62 0 -125 -65.5t-91 -194.5z" />
    <glyph glyph-name="o" unicode="o" 
d="M305 -11q-38 0 -69.5 13t-59 45t-33 85.5t8.5 134.5q16 74 46 130t68 87.5t77.5 46.5t79.5 15q54 0 90 -21t51.5 -51.5t20 -71.5t2 -72t-9.5 -63q-16 -74 -46 -130t-68 -87t-77.5 -46t-80.5 -15zM318 52q137 0 184 215q45 216 -92 216q-138 0 -183 -216q-47 -215 91 -215
z" />
    <glyph glyph-name="p" unicode="p" 
d="M275 548l3 -62q47 35 74 47.5t70 12.5q38 0 70.5 -14.5t59.5 -47.5t33 -87t-8 -133q-15 -72 -48.5 -128t-74 -86.5t-79.5 -45.5t-74 -15q-55 0 -108 31l-48 -225h-75l116 543q27 121 17 201zM272 390l-63 -294q46 -44 93 -44q68 0 123.5 57t77.5 158q11 66 7.5 108
t-23 66t-39 33t-40.5 9q-73 0 -136 -93z" />
    <glyph glyph-name="q" unicode="q" 
d="M439 -205h-75l48 225q-64 -31 -119 -31q-35 0 -67.5 14.5t-61 46.5t-37 85t5.5 129q16 75 48 132t71.5 88.5t78.5 46.5t77 15q43 0 65 -13t53 -47l29 62l70 -9q-45 -80 -69 -195zM428 96l64 299q-14 43 -34.5 65.5t-60.5 22.5q-51 0 -107 -50t-81 -166q-22 -101 9.5 -158
t99.5 -57q48 0 110 44z" />
    <glyph glyph-name="r" unicode="r" 
d="M279 223l-47 -223h-75l65 307q26 122 28 228h73l-5 -102q47 55 91 84t99 29q47 0 70.5 -28.5t23 -68t-7.5 -82.5h-75q1 3 4 18.5t3.5 22.5t2 21t-0.5 21.5t-5.5 16t-11.5 12.5t-20 4q-51 0 -119 -70t-93 -190z" />
    <glyph glyph-name="s" unicode="s" 
d="M567 484l-46 -61q-72 60 -130 60q-35 0 -66 -23t-39 -58q-12 -55 84 -93q37 -15 58 -26t45.5 -31t32 -48.5t-0.5 -66.5q-14 -64 -71.5 -106t-122.5 -42q-117 0 -201 93l54 60q27 -37 69 -63.5t86 -26.5q40 0 71 21.5t39 60.5q5 25 1 43t-21.5 31t-28.5 19t-38 17
q-34 14 -54 24.5t-43.5 30t-31.5 46t-1 60.5q13 59 69.5 100t125.5 41q87 0 160 -62z" />
    <glyph glyph-name="t" unicode="t" 
d="M576 535l-14 -63h-191l-65 -305q-5 -26 -7 -41t0 -35t15 -29.5t37 -9.5q71 0 133 94l68 -18q-94 -139 -216 -139q-71 0 -97 44.5t-2 157.5l59 281h-115l14 63h115l35 164h75l-35 -164h191z" />
    <glyph glyph-name="u" unicode="u" 
d="M482 316l47 219h75l-55 -259q-38 -177 -36 -276h-71l5 103q-38 -47 -94.5 -80.5t-105.5 -33.5q-67 0 -90.5 49.5t-7.5 124.5l79 372h75l-75 -350q-6 -26 -8 -43t-1.5 -41t12.5 -36.5t35 -12.5q62 0 125.5 69t90.5 195z" />
    <glyph glyph-name="v" unicode="v" 
d="M543 535h78l-281 -542h-85l-51 542h78l42 -415z" />
    <glyph glyph-name="w" unicode="w" 
d="M128 -7l21 542h84l-25 -401h2l135 270h73l19 -270h2l147 401h84l-209 -542h-80l-26 290l-147 -290h-80z" />
    <glyph glyph-name="x" unicode="x" 
d="M621 535l-219 -246l150 -289h-95l-109 231l-205 -231h-95l271 286l-117 249h87l85 -188l162 188h85z" />
    <glyph glyph-name="y" unicode="y" 
d="M559 535h80l-305 -502q-25 -41 -41.5 -65t-46.5 -59.5t-62.5 -53.5t-67.5 -18q-49 0 -77.5 32.5t-33.5 83.5l70 33q13 -86 55 -86q19 0 41 18t32 32.5t27 39.5l52 81l-73 464h81l52 -364z" />
    <glyph glyph-name="z" unicode="z" 
d="M610 535l-12 -56l-396 -416h319l-13 -63h-416l12 55l397 417h-265l14 63h360z" />
    <glyph glyph-name="braceleft" unicode="{" 
d="M266 61l36 169q1 18 2.5 29.5t-5 21t-12 14.5t-17 9t-20.5 6.5t-23 6t-24 6.5q13 4 36 9.5t36 9.5t28.5 12.5t24.5 24t14 38.5l36 169q18 85 63.5 120.5t149.5 35.5h55l-6 -28h-33q-128 0 -147 -92l-38 -180q-6 -27 -9 -37.5t-11 -29t-21.5 -30.5t-33.5 -22
q30 -18 33.5 -50t-8.5 -68l-39 -180q-10 -44 14.5 -68t93.5 -24h33l-6 -28h-55q-104 0 -134.5 35.5t-12.5 120.5z" />
    <glyph glyph-name="bar" unicode="|" 
d="M337 -288v1080h66v-1080h-66z" />
    <glyph glyph-name="braceright" unicode="}" 
d="M474 586l-36 -169q-1 -18 -2.5 -29.5t5 -21t12 -14.5t17 -9.5t20.5 -6.5t23 -5.5t24 -7.5q-13 -4 -36.5 -9t-36 -9t-28 -12.5t-24.5 -24t-14 -38.5l-36 -169q-18 -85 -63.5 -120.5t-149.5 -35.5h-55l6 28h33q126 0 146 92l39 180q6 27 9 37.5t11 29t21.5 30t33.5 21.5
q-30 19 -33.5 51t8.5 68l38 180q9 44 -14.5 68t-92.5 24h-33l6 28h55q103 0 134 -35.5t13 -120.5z" />
    <glyph glyph-name="asciitilde" unicode="~" 
d="M253 434q43 0 127 -37t107 -37q35 0 65 30t47 68l52 -38q-27 -52 -69.5 -89t-93.5 -37q-11 0 -25.5 3t-32.5 9t-29.5 10.5t-31.5 12.5l-25 10q-69 29 -91 29q-17 0 -31 -5.5t-27 -20.5t-19.5 -23t-20 -30.5t-15.5 -26.5l-52 39q18 31 31 49.5t33.5 40.5t45.5 32.5
t55 10.5z" />
    <glyph glyph-name="uni00A0" unicode="&#xa0;" 
 />
    <glyph glyph-name="exclamdown" unicode="&#xa1;" 
d="M251 0l120 501h67l-89 -501h-98zM359 657q7 32 35.5 54.5t61.5 22.5t52 -22t12 -55t-35.5 -55.5t-61.5 -22.5t-52 22.5t-12 55.5z" />
    <glyph glyph-name="cent" unicode="&#xa2;" 
d="M639 533l-77 -45q-9 27 -16.5 42.5t-22.5 31t-37 22.5l-90 -422q56 16 126 84l40 -53q-96 -82 -179 -95l-27 -128h-75l27 127q-92 20 -122.5 93t-8.5 178q51 239 248 280l20 94h75l-20 -93q52 -11 82 -37.5t57 -78.5zM322 164l89 419q-120 -33 -157 -208
q-38 -174 68 -211z" />
    <glyph glyph-name="sterling" unicode="&#xa3;" 
d="M656 596l-75 -23q-24 84 -102 84q-67 0 -106.5 -50t-39.5 -114q0 -16 4 -64h200l-13 -63h-181q2 -46 2 -69q0 -66 -20.5 -109t-69.5 -106q49 9 66 9q28 0 67.5 -16.5t57.5 -16.5q8 0 16.5 2.5t19.5 8.5t15.5 9t18 12.5t14.5 10.5l33 -48q-65 -58 -124 -58
q-31 0 -72.5 16.5t-68.5 16.5q-46 0 -132 -42l-29 51q18 25 44 58t38 50t26 43t19 56t5 71q0 21 -2 51h-116l13 63h98q-4 40 -4 61q0 102 69.5 166t166.5 64q62 0 107 -34t55 -90z" />
    <glyph glyph-name="currency" unicode="&#xa4;" 
d="M204 506l-109 107l33 32l108 -107q64 52 148 52t148 -52l108 107l33 -32l-109 -107q50 -68 50 -146t-50 -146l109 -107l-33 -32l-108 107q-64 -52 -148 -52t-148 52l-108 -107l-33 32l109 107q-50 68 -50 146t50 146zM384 169q81 0 136 55t55 136t-55 136.5t-136 55.5
t-136 -55.5t-55 -136.5t55 -136t136 -55z" />
    <glyph glyph-name="yen" unicode="&#xa5;" 
d="M148 220h142l18 82h-142l12 56h120l-83 362h84l67 -325l204 325h88l-237 -362h116l-12 -56h-142l-18 -82h142l-12 -56h-142l-34 -164h-75l34 164h-142z" />
    <glyph glyph-name="brokenbar" unicode="&#xa6;" 
d="M337 325v350h66v-350h-66zM337 -175v350h66v-350h-66z" />
    <glyph glyph-name="section" unicode="&#xa7;" 
d="M462 338l-146 136q-45 -19 -55 -63q-6 -30 23 -62l146 -135q44 18 54 62q6 30 -22 62zM399 502l49 -44q4 -4 30.5 -26.5t36 -32.5t26 -31.5t20.5 -42.5t-1 -44q-8 -36 -31 -60t-64 -49q1 -3 4 -9.5t4.5 -9.5t3.5 -9t3 -9.5t2 -9t1 -10.5t-0.5 -10.5t-1.5 -11.5
q-14 -66 -67 -103t-121 -37q-76 0 -115.5 44t-12.5 131h72q-31 -112 67 -112q35 0 64 17.5t36 51.5q5 10 1.5 23t-5 19t-10 16t-13.5 14.5t-15.5 13.5t-15.5 14l-48 44q-6 6 -31 27t-36 32.5t-26.5 32t-20 41.5t0.5 44q7 35 30.5 59.5t64.5 49.5q-1 2 -3.5 8.5t-3.5 8.5
t-3.5 8t-3 8.5t-2 8t-1.5 9v8.5t0.5 10t1.5 10q14 67 66.5 103.5t120.5 36.5q76 0 116.5 -43.5t12.5 -131.5h-73q31 112 -66 112q-35 0 -64 -17.5t-36 -50.5q-4 -8 -1.5 -18t2 -15.5t5 -13.5t8 -12t9.5 -11.5t11 -10.5t11.5 -10t11.5 -10z" />
    <glyph glyph-name="dieresis" unicode="&#xa8;" 
d="M285 678q6 28 30.5 47.5t52.5 19.5t44.5 -19.5t10.5 -47.5t-30.5 -47.5t-52.5 -19.5t-44.5 19.5t-10.5 47.5zM464 678q6 28 30.5 47.5t52.5 19.5t44.5 -19.5t10.5 -47.5t-30.5 -47.5t-52.5 -19.5t-44.5 19.5t-10.5 47.5z" />
    <glyph glyph-name="copyright" unicode="&#xa9;" 
d="M456 734q120 0 181.5 -109.5t29.5 -264.5q-33 -155 -141.5 -264.5t-228.5 -109.5q-79 0 -135.5 51t-75 134.5t0.5 188.5q32 155 140 264.5t229 109.5zM440 659q-85 0 -168 -85t-110 -214q-26 -124 17.5 -211.5t133.5 -87.5q83 0 168 88t111 211q30 144 -20 221.5
t-132 77.5zM440 293h69q-19 -67 -66 -107.5t-100 -40.5q-71 0 -102 63t-12 155q21 96 76.5 156t128.5 60q53 0 82.5 -38t23.5 -102h-69q3 33 -11.5 52t-41.5 19q-44 0 -75 -42t-44 -103q-13 -58 1.5 -104.5t56.5 -46.5q26 0 50.5 23t32.5 56z" />
    <glyph glyph-name="ordfeminine" unicode="&#xaa;" 
d="M447 495l13 59q-29 11 -51 11q-28 0 -46 -18.5t-25 -47.5q-4 -21 4 -37t28 -16q32 0 77 49zM493 319l-13 -59h-261l13 59h261zM536 601l-24 -114q-10 -53 -5 -94l-63 -8l-4 31q-46 -29 -84 -29q-51 0 -72.5 33t-10.5 84q12 55 53.5 87.5t96.5 32.5q22 0 50 -7
q7 23 -1 40.5t-31 17.5q-14 0 -31 -5t-39.5 -14t-33.5 -12l4 71q80 19 114 19q54 0 74 -36.5t7 -96.5z" />
    <glyph glyph-name="guillemotleft" unicode="&#xab;" 
d="M665 615l37 -48l-269 -211l179 -211l-57 -50l-218 261zM423 615l37 -48l-269 -211l179 -211l-58 -50l-217 261z" />
    <glyph glyph-name="logicalnot" unicode="&#xac;" 
d="M575 161v225h-480v66h550v-291h-70z" />
    <glyph glyph-name="uni00AD" unicode="&#xad;" 
d="M500 327h-260l13 63h260z" />
    <glyph glyph-name="registered" unicode="&#xae;" 
d="M297 -14q-121 0 -182 109.5t-28 264.5t140.5 264.5t228.5 109.5q120 0 182 -109.5t29 -264.5t-141.5 -264.5t-228.5 -109.5zM313 61q31 0 69 16.5t79.5 49t77.5 94t53 139.5q27 129 -21 214t-131 85t-166 -83t-112 -216q-26 -124 21 -211.5t130 -87.5zM438 328l39 -171
h-71l-33 171h-60l-37 -171h-63l86 403h152q66 0 88 -28t8 -95q-12 -54 -38.5 -79t-70.5 -30zM325 387h90q29 0 46.5 13t24.5 48q4 19 0 30.5t-16.5 16t-21 5.5t-24.5 1h-75z" />
    <glyph glyph-name="macron" unicode="&#xaf;" 
d="M585 610h-311l13 63h311z" />
    <glyph glyph-name="degree" unicode="&#xb0;" 
d="M157 556q0 88 63 148.5t150 60.5q88 0 150.5 -60.5t62.5 -148.5q0 -87 -62.5 -147.5t-150.5 -60.5q-87 0 -150 60.5t-63 147.5zM237 556q0 -55 39 -93.5t94 -38.5t94 38.5t39 93.5t-39 94t-94 39t-94 -39t-39 -94z" />
    <glyph glyph-name="plusminus" unicode="&#xb1;" 
d="M645 444v-66h-240v-237h-70v237h-240v66h240v237h70v-237h240zM645 105v-66h-550v66h550z" />
    <glyph glyph-name="twosuperior" unicode="&#xb2;" 
d="M172 392h172l-9 -42h-222l5 22q13 57 43 92t89 77q20 14 29 21t27 21.5t27.5 28.5t12.5 28q5 24 -5 38t-34 14q-31 0 -50.5 -22t-27.5 -54h-51q13 52 49.5 85t88.5 33q46 0 68 -25.5t12 -69.5q-7 -35 -40 -68t-69 -55t-70.5 -55.5t-44.5 -68.5z" />
    <glyph glyph-name="threesuperior" unicode="&#xb3;" 
d="M230 530l9 42q32 -2 60.5 15.5t34.5 49.5q5 24 -9 39.5t-38 15.5q-44 0 -81 -55l-37 24q23 33 57 53t70 20q46 0 72 -28t16 -73q-11 -50 -62 -78q55 -28 41 -97q-11 -51 -51.5 -83t-92.5 -32q-43 0 -67 18.5t-41 57.5l51 26q8 -31 21.5 -45.5t44.5 -14.5t54.5 19t29.5 49
q9 41 -11 58.5t-71 18.5z" />
    <glyph glyph-name="acute" unicode="&#xb4;" 
d="M537 775l41 -62l-221 -129l-27 49z" />
    <glyph glyph-name="mu" unicode="&#xb5;" 
d="M410 0l10 45q-53 -56 -120 -56q-72 0 -100 52l-58 -271h-75l163 765h75l-66 -311q-20 -95 3.5 -133.5t65.5 -38.5q43 0 86 39t65 140l65 304h75l-114 -535h-75z" />
    <glyph glyph-name="paragraph" unicode="&#xb6;" 
d="M242 -109l91 431q-91 -3 -142 52.5t-32 145.5q8 38 26.5 71t51.5 63t88 48t125 18h261l-13 -63h-46l-163 -766h-75l163 766h-97l-163 -766h-75z" />
    <glyph glyph-name="periodcentered" unicode="&#xb7;" 
d="M220 360q0 32 24 56t56 24t56 -24t24 -56t-24 -56t-56 -24t-56 24t-24 56z" />
    <glyph glyph-name="cedilla" unicode="&#xb8;" 
d="M359 38l-38 -69q37 -2 58 -21.5t13 -55.5q-8 -37 -43.5 -59t-74.5 -22q-46 0 -104 29l34 55q42 -21 74 -21q35 0 40 22q3 14 -11 19t-56 9q-13 1 -20 2l64 112h64z" />
    <glyph glyph-name="onesuperior" unicode="&#xb9;" 
d="M334 742l-76 -354h68l-8 -42h-188l8 42h70l63 293l-78 -22l10 45z" />
    <glyph glyph-name="ordmasculine" unicode="&#xba;" 
d="M499 319l-13 -59h-261l13 59h261zM382 387q-66 0 -94.5 47t-11.5 126q16 76 62.5 125t117.5 49q67 0 95 -48t11 -125q-16 -76 -62.5 -125t-117.5 -49zM395 446q76 0 101 114q4 27 5 52.5t-14 44t-44 18.5q-76 0 -101 -115q-4 -26 -5 -51.5t14 -44t44 -18.5z" />
    <glyph glyph-name="guillemotright" unicode="&#xbb;" 
d="M197 615l218 -259l-329 -261l-36 50l269 211l-179 211zM439 615l219 -259l-330 -261l-36 50l269 211l-179 211z" />
    <glyph glyph-name="onequarter" unicode="&#xbc;" 
d="M601 384l-53 -247h54l-9 -42h-54l-20 -95h-50l20 95h-149l7 31l195 258h59zM616 720h58l-483 -720h-56zM498 137l36 168h-2l-124 -168h90zM334 742l-76 -354h68l-8 -42h-188l8 42h70l63 293l-78 -22l10 45z" />
    <glyph glyph-name="onehalf" unicode="&#xbd;" 
d="M599 720h58l-483 -720h-56zM400 42h172l-9 -42h-222l5 22q13 57 43 92.5t89 76.5q1 1 11 8t13 9.5t13 9.5t14 11t12 11t12 12.5t9 12t8 13t4 12.5q5 24 -5 38t-34 14q-31 0 -50.5 -22t-27.5 -54h-51q13 52 49.5 85t88.5 33q46 0 67.5 -25t11.5 -70q-7 -35 -40 -68
t-69 -55t-70.5 -55.5t-43.5 -68.5zM334 742l-76 -354h68l-8 -42h-188l8 42h70l63 293l-78 -22l10 45z" />
    <glyph glyph-name="threequarters" unicode="&#xbe;" 
d="M601 384l-53 -247h54l-9 -42h-54l-20 -95h-50l20 95h-149l7 31l195 258h59zM498 137l36 168h-2l-124 -168h90zM613 720h58l-483 -720h-56zM230 530l9 42q32 -2 60.5 15.5t34.5 49.5q5 24 -9 39.5t-38 15.5q-44 0 -81 -55l-37 24q23 33 57 53t70 20q46 0 72 -28t16 -73
q-11 -50 -62 -78q55 -28 41 -97q-11 -51 -51.5 -83t-92.5 -32q-43 0 -67 18.5t-41 57.5l51 26q8 -31 21.5 -45.5t44.5 -14.5t54.5 19t29.5 49q9 41 -11 58.5t-71 18.5z" />
    <glyph glyph-name="questiondown" unicode="&#xbf;" 
d="M376 504h75l-22 -106q-9 -44 -31.5 -69.5t-86.5 -66.5q-34 -22 -51 -44t-25 -56q-11 -51 11 -82t72 -31q49 0 83 30.5t45 79.5h75q-21 -80 -79 -126.5t-138 -46.5q-83 0 -122 48t-21 131q10 46 31.5 76t61.5 59q19 15 42.5 30t31 21t15 17.5t11.5 29.5zM358 657
q7 32 35.5 54.5t61.5 22.5t52 -22t12 -55t-35.5 -55.5t-61.5 -22.5t-52 22.5t-12 55.5z" />
    <glyph glyph-name="Agrave" unicode="&#xc0;" 
d="M467 780l89 -780h-81l-19 212h-219l-109 -212h-81zM421 566l-153 -291h183zM407 960l147 -142l-49 -49l-165 129z" />
    <glyph glyph-name="Aacute" unicode="&#xc1;" 
d="M467 780l89 -780h-81l-19 212h-219l-109 -212h-81zM421 566l-153 -291h183zM567 960l41 -62l-221 -129l-27 49z" />
    <glyph glyph-name="Acircumflex" unicode="&#xc2;" 
d="M467 780l89 -780h-81l-19 212h-219l-109 -212h-81zM421 566l-153 -291h183zM485 869l-161 -103l-30 43l211 153l147 -153l-49 -43z" />
    <glyph glyph-name="Atilde" unicode="&#xc3;" 
d="M467 780l89 -780h-81l-19 212h-219l-109 -212h-81zM421 566l-153 -291h183zM618 919l56 -25q-23 -41 -59 -68t-77 -27q-37 0 -81 31q-41 31 -62 31q-34 0 -78 -68l-57 22q34 51 69 80t81 29q16 0 31.5 -5.5t23 -10t25.5 -16.5q2 -1 12 -8t16 -10.5t15 -7.5t16 -4
q15 0 29.5 10.5t21.5 19.5t18 27z" />
    <glyph glyph-name="Adieresis" unicode="&#xc4;" 
d="M467 780l89 -780h-81l-19 212h-219l-109 -212h-81zM421 566l-153 -291h183zM315 863q6 28 30.5 47.5t52.5 19.5t44.5 -19.5t10.5 -47.5t-30.5 -47.5t-52.5 -19.5t-44.5 19.5t-10.5 47.5zM494 863q6 28 30.5 47.5t52.5 19.5t44.5 -19.5t10.5 -47.5t-30.5 -47.5
t-52.5 -19.5t-44.5 19.5t-10.5 47.5z" />
    <glyph glyph-name="Aring" unicode="&#xc5;" 
d="M467 780l89 -780h-81l-19 212h-219l-109 -212h-81zM421 566l-153 -291h183zM394 878q8 39 42.5 67t72.5 28t59.5 -28t13.5 -67t-42 -67t-72 -28t-60 28t-14 67zM457 878q-2 -13 5 -22.5t20 -9.5t24 9.5t13 22.5q3 13 -4 22.5t-20 9.5t-24 -9.5t-14 -22.5z" />
    <glyph glyph-name="AE" unicode="&#xc6;" 
d="M702 720l-13 -63h-203l-54 -253h138l-14 -63h-138l-59 -278h211l-13 -63h-286l46 215h-116l-103 -215h-78l352 720h330zM330 278l81 379h-2l-178 -379h99z" />
    <glyph glyph-name="Ccedilla" unicode="&#xc7;" 
d="M625 564h-75q9 46 -14 76.5t-68 30.5q-161 0 -230 -317q-64 -305 90 -305q55 0 95.5 36t52.5 91h75q-23 -84 -80.5 -134t-139.5 -54l-10 -19q37 -2 58 -21.5t13 -55.5q-8 -37 -43.5 -59t-74.5 -22q-46 0 -104 29l34 55q42 -21 74 -21q35 0 40 22q3 14 -11 19t-56 9
q-13 1 -20 2l37 65q-175 36 -104 365q11 53 26 100.5t41.5 100.5t59 90t82 62t107.5 25q75 0 115.5 -47.5t29.5 -122.5z" />
    <glyph glyph-name="Egrave" unicode="&#xc8;" 
d="M666 720l-13 -63h-299l-55 -256h215l-13 -63h-215l-59 -275h306l-13 -63h-381l153 720h374zM412 960l147 -142l-49 -49l-165 129z" />
    <glyph glyph-name="Eacute" unicode="&#xc9;" 
d="M666 720l-13 -63h-299l-55 -256h215l-13 -63h-215l-59 -275h306l-13 -63h-381l153 720h374zM567 960l41 -62l-221 -129l-27 49z" />
    <glyph glyph-name="Ecircumflex" unicode="&#xca;" 
d="M666 720l-13 -63h-299l-55 -256h215l-13 -63h-215l-59 -275h306l-13 -63h-381l153 720h374zM475 869l-161 -103l-30 43l211 153l147 -153l-49 -43z" />
    <glyph glyph-name="Edieresis" unicode="&#xcb;" 
d="M666 720l-13 -63h-299l-55 -256h215l-13 -63h-215l-59 -275h306l-13 -63h-381l153 720h374zM330 863q6 28 30.5 47.5t52.5 19.5t44.5 -19.5t10.5 -47.5t-30.5 -47.5t-52.5 -19.5t-44.5 19.5t-10.5 47.5zM509 863q6 28 30.5 47.5t52.5 19.5t44.5 -19.5t10.5 -47.5
t-30.5 -47.5t-52.5 -19.5t-44.5 19.5t-10.5 47.5z" />
    <glyph glyph-name="Igrave" unicode="&#xcc;" 
d="M588 720l-13 -63h-98l-127 -594h98l-13 -63h-270l13 63h97l127 594h-97l13 63h270zM407 960l147 -142l-49 -49l-165 129z" />
    <glyph glyph-name="Iacute" unicode="&#xcd;" 
d="M588 720l-13 -63h-98l-127 -594h98l-13 -63h-270l13 63h97l127 594h-97l13 63h270zM567 960l41 -62l-221 -129l-27 49z" />
    <glyph glyph-name="Icircumflex" unicode="&#xce;" 
d="M588 720l-13 -63h-98l-127 -594h98l-13 -63h-270l13 63h97l127 594h-97l13 63h270zM485 869l-161 -103l-30 43l211 153l147 -153l-49 -43z" />
    <glyph glyph-name="Idieresis" unicode="&#xcf;" 
d="M588 720l-13 -63h-98l-127 -594h98l-13 -63h-270l13 63h97l127 594h-97l13 63h270zM315 863q6 28 30.5 47.5t52.5 19.5t44.5 -19.5t10.5 -47.5t-30.5 -47.5t-52.5 -19.5t-44.5 19.5t-10.5 47.5zM494 863q6 28 30.5 47.5t52.5 19.5t44.5 -19.5t10.5 -47.5t-30.5 -47.5
t-52.5 -19.5t-44.5 19.5t-10.5 47.5z" />
    <glyph glyph-name="Eth" unicode="&#xd0;" 
d="M197 405l68 315h183q55 0 91.5 -16.5t61 -58t23.5 -111t-20 -174.5q-42 -199 -119 -279.5t-201 -80.5h-172l74 342h-98l14 63h95zM327 657l-54 -252h134l-14 -63h-133l-60 -279h92q45 0 74.5 9t61 38.5t56 90.5t45.5 159q17 80 19.5 136.5t-5.5 87.5t-29 48t-42 21t-55 4
h-90z" />
    <glyph glyph-name="Ntilde" unicode="&#xd1;" 
d="M115 0l153 720h87l105 -538h3l114 538h75l-154 -727h-71l-113 581l-2 -2l-122 -572h-75zM618 919l56 -25q-23 -41 -59 -68t-77 -27q-37 0 -81 31q-41 31 -62 31q-34 0 -78 -68l-57 22q34 51 69 80t81 29q16 0 31.5 -5.5t23 -10t25.5 -16.5q2 -1 12 -8t16 -10.5t15 -7.5
t16 -4q15 0 29.5 10.5t21.5 19.5t18 27z" />
    <glyph glyph-name="Ograve" unicode="&#xd2;" 
d="M156 360q19 88 44.5 154.5t53.5 107.5t62.5 66.5t67.5 35.5t72 10q50 0 85 -17.5t51.5 -50.5t24 -68t4 -82t-8.5 -80.5t-14 -75.5q-6 -28 -8.5 -39t-11.5 -46.5t-16.5 -55t-22 -54t-29.5 -55.5t-38 -47.5t-47.5 -41t-57.5 -25t-70 -10.5q-46 0 -78.5 16t-50.5 39
t-26.5 60.5t-9.5 67.5t4 73t9 64t11 54zM310 49q31 0 57.5 12.5t55.5 44.5t54.5 96t45.5 158q27 129 23 192q-8 119 -103 119q-150 0 -210 -301q-1 -7 -2 -10q-30 -143 -21 -209q13 -102 100 -102zM407 960l147 -142l-49 -49l-165 129z" />
    <glyph glyph-name="Oacute" unicode="&#xd3;" 
d="M156 360q19 88 44.5 154.5t53.5 107.5t62.5 66.5t67.5 35.5t72 10q50 0 85 -17.5t51.5 -50.5t24 -68t4 -82t-8.5 -80.5t-14 -75.5q-6 -28 -8.5 -39t-11.5 -46.5t-16.5 -55t-22 -54t-29.5 -55.5t-38 -47.5t-47.5 -41t-57.5 -25t-70 -10.5q-46 0 -78.5 16t-50.5 39
t-26.5 60.5t-9.5 67.5t4 73t9 64t11 54zM310 49q31 0 57.5 12.5t55.5 44.5t54.5 96t45.5 158q27 129 23 192q-8 119 -103 119q-150 0 -210 -301q-1 -7 -2 -10q-30 -143 -21 -209q13 -102 100 -102zM567 960l41 -62l-221 -129l-27 49z" />
    <glyph glyph-name="Ocircumflex" unicode="&#xd4;" 
d="M156 360q19 88 44.5 154.5t53.5 107.5t62.5 66.5t67.5 35.5t72 10q50 0 85 -17.5t51.5 -50.5t24 -68t4 -82t-8.5 -80.5t-14 -75.5q-6 -28 -8.5 -39t-11.5 -46.5t-16.5 -55t-22 -54t-29.5 -55.5t-38 -47.5t-47.5 -41t-57.5 -25t-70 -10.5q-46 0 -78.5 16t-50.5 39
t-26.5 60.5t-9.5 67.5t4 73t9 64t11 54zM310 49q31 0 57.5 12.5t55.5 44.5t54.5 96t45.5 158q27 129 23 192q-8 119 -103 119q-150 0 -210 -301q-1 -7 -2 -10q-30 -143 -21 -209q13 -102 100 -102zM475 869l-161 -103l-30 43l211 153l147 -153l-49 -43z" />
    <glyph glyph-name="Otilde" unicode="&#xd5;" 
d="M156 360q19 88 44.5 154.5t53.5 107.5t62.5 66.5t67.5 35.5t72 10q50 0 85 -17.5t51.5 -50.5t24 -68t4 -82t-8.5 -80.5t-14 -75.5q-6 -28 -8.5 -39t-11.5 -46.5t-16.5 -55t-22 -54t-29.5 -55.5t-38 -47.5t-47.5 -41t-57.5 -25t-70 -10.5q-46 0 -78.5 16t-50.5 39
t-26.5 60.5t-9.5 67.5t4 73t9 64t11 54zM310 49q31 0 57.5 12.5t55.5 44.5t54.5 96t45.5 158q27 129 23 192q-8 119 -103 119q-150 0 -210 -301q-1 -7 -2 -10q-30 -143 -21 -209q13 -102 100 -102zM613 919l56 -25q-23 -41 -59 -68t-77 -27q-37 0 -81 31q-41 31 -62 31
q-34 0 -78 -68l-57 22q34 51 69 80t81 29q16 0 31.5 -5.5t23 -10t25.5 -16.5q2 -1 12 -8t16 -10.5t15 -7.5t16 -4q15 0 29.5 10.5t21.5 19.5t18 27z" />
    <glyph glyph-name="Odieresis" unicode="&#xd6;" 
d="M156 360q19 88 44.5 154.5t53.5 107.5t62.5 66.5t67.5 35.5t72 10q50 0 85 -17.5t51.5 -50.5t24 -68t4 -82t-8.5 -80.5t-14 -75.5q-6 -28 -8.5 -39t-11.5 -46.5t-16.5 -55t-22 -54t-29.5 -55.5t-38 -47.5t-47.5 -41t-57.5 -25t-70 -10.5q-46 0 -78.5 16t-50.5 39
t-26.5 60.5t-9.5 67.5t4 73t9 64t11 54zM310 49q31 0 57.5 12.5t55.5 44.5t54.5 96t45.5 158q27 129 23 192q-8 119 -103 119q-150 0 -210 -301q-1 -7 -2 -10q-30 -143 -21 -209q13 -102 100 -102zM310 863q6 28 30.5 47.5t52.5 19.5t44.5 -19.5t10.5 -47.5t-30.5 -47.5
t-52.5 -19.5t-44.5 19.5t-10.5 47.5zM489 863q6 28 30.5 47.5t52.5 19.5t44.5 -19.5t10.5 -47.5t-30.5 -47.5t-52.5 -19.5t-44.5 19.5t-10.5 47.5z" />
    <glyph glyph-name="multiply" unicode="&#xd7;" 
d="M370 312l-227 -228l-48 48l228 228l-228 228l48 48l227 -228l227 228l48 -48l-228 -228l228 -228l-48 -48z" />
    <glyph glyph-name="Oslash" unicode="&#xd8;" 
d="M207 191l327 419q-26 61 -91 61q-67 0 -120.5 -66t-91.5 -245q-24 -112 -24 -169zM547 532l-327 -420q24 -63 90 -63q30 0 56.5 12t55.5 43.5t55.5 96t46.5 159.5q22 103 23 172zM585 677l38 49l49 -33l-59 -75q23 -91 -14 -258q-11 -51 -22 -90.5t-35.5 -96.5
t-54.5 -94.5t-80 -65t-110 -27.5q-84 0 -129 59l-58 -73l-49 33l78 100q-20 88 17 255q28 132 63 204q84 170 237 170q84 0 129 -57z" />
    <glyph glyph-name="Ugrave" unicode="&#xd9;" 
d="M577 720h75l-113 -531q-14 -65 -54 -112.5t-88.5 -69t-99.5 -21.5q-26 0 -49.5 6t-48.5 22t-38.5 43.5t-19.5 70t8 101.5l104 491h75l-113 -531q-15 -72 15 -106t80 -34q65 0 103.5 41.5t52.5 107.5zM402 960l147 -142l-49 -49l-165 129z" />
    <glyph glyph-name="Uacute" unicode="&#xda;" 
d="M577 720h75l-113 -531q-14 -65 -54 -112.5t-88.5 -69t-99.5 -21.5q-26 0 -49.5 6t-48.5 22t-38.5 43.5t-19.5 70t8 101.5l104 491h75l-113 -531q-15 -72 15 -106t80 -34q65 0 103.5 41.5t52.5 107.5zM557 960l41 -62l-221 -129l-27 49z" />
    <glyph glyph-name="Ucircumflex" unicode="&#xdb;" 
d="M577 720h75l-113 -531q-14 -65 -54 -112.5t-88.5 -69t-99.5 -21.5q-26 0 -49.5 6t-48.5 22t-38.5 43.5t-19.5 70t8 101.5l104 491h75l-113 -531q-15 -72 15 -106t80 -34q65 0 103.5 41.5t52.5 107.5zM475 869l-161 -103l-30 43l211 153l147 -153l-49 -43z" />
    <glyph glyph-name="Udieresis" unicode="&#xdc;" 
d="M577 720h75l-113 -531q-14 -65 -54 -112.5t-88.5 -69t-99.5 -21.5q-26 0 -49.5 6t-48.5 22t-38.5 43.5t-19.5 70t8 101.5l104 491h75l-113 -531q-15 -72 15 -106t80 -34q65 0 103.5 41.5t52.5 107.5zM315 863q6 28 30.5 47.5t52.5 19.5t44.5 -19.5t10.5 -47.5
t-30.5 -47.5t-52.5 -19.5t-44.5 19.5t-10.5 47.5zM494 863q6 28 30.5 47.5t52.5 19.5t44.5 -19.5t10.5 -47.5t-30.5 -47.5t-52.5 -19.5t-44.5 19.5t-10.5 47.5z" />
    <glyph glyph-name="Yacute" unicode="&#xdd;" 
d="M366 394l207 326h83l-272 -416l-65 -304h-75l65 304l-96 416h83zM537 960l41 -62l-221 -129l-27 49z" />
    <glyph glyph-name="Thorn" unicode="&#xde;" 
d="M134 0l153 720h75l-30 -141h98q98 0 139.5 -57t19.5 -163q-23 -110 -99.5 -163.5t-187.5 -53.5h-63l-30 -142h-75zM253 205h83q67 0 115 39.5t63 113.5q34 158 -107 158h-88z" />
    <glyph glyph-name="germandbls" unicode="&#xdf;" 
d="M325 352l13 63q63 -1 113 36t63 99q10 49 -10 85t-67 36q-42 0 -69.5 -29.5t-41.5 -98.5l-115 -543h-75l122 574q12 57 69 108.5t133 51.5q71 0 107.5 -55t21.5 -127q-21 -100 -121 -162q104 -50 75 -189q-13 -60 -38 -104t-56 -66t-59.5 -32t-56.5 -10q-49 0 -89 35
l46 55q33 -27 59 -27q46 0 75.5 43t40.5 94q18 85 -18 125t-122 38z" />
    <glyph glyph-name="agrave" unicode="&#xe0;" 
d="M453 331l11 51q10 45 -9 73t-61 28q-11 0 -24 -2t-23 -4t-25.5 -7.5t-22.5 -8t-25 -9.5t-23 -9l-3 66q102 37 162 37q74 0 108 -51.5t19 -121.5l-49 -232q-16 -80 -8 -145l-72 -9l-5 67q-68 -65 -146 -65q-74 0 -106 50.5t-16 124.5q17 81 75.5 137t136.5 56
q48 0 106 -26zM414 146l26 122q-54 26 -97 26q-53 0 -87.5 -39t-46.5 -95q-9 -42 6 -75t55 -33q27 0 56 16.5t44 30.5t44 45v2zM372 775l147 -142l-49 -49l-165 129z" />
    <glyph glyph-name="aacute" unicode="&#xe1;" 
d="M453 331l11 51q10 45 -9 73t-61 28q-11 0 -24 -2t-23 -4t-25.5 -7.5t-22.5 -8t-25 -9.5t-23 -9l-3 66q102 37 162 37q74 0 108 -51.5t19 -121.5l-49 -232q-16 -80 -8 -145l-72 -9l-5 67q-68 -65 -146 -65q-74 0 -106 50.5t-16 124.5q17 81 75.5 137t136.5 56
q48 0 106 -26zM414 146l26 122q-54 26 -97 26q-53 0 -87.5 -39t-46.5 -95q-9 -42 6 -75t55 -33q27 0 56 16.5t44 30.5t44 45v2zM547 775l41 -62l-221 -129l-27 49z" />
    <glyph glyph-name="acircumflex" unicode="&#xe2;" 
d="M453 331l11 51q10 45 -9 73t-61 28q-11 0 -24 -2t-23 -4t-25.5 -7.5t-22.5 -8t-25 -9.5t-23 -9l-3 66q102 37 162 37q74 0 108 -51.5t19 -121.5l-49 -232q-16 -80 -8 -145l-72 -9l-5 67q-68 -65 -146 -65q-74 0 -106 50.5t-16 124.5q17 81 75.5 137t136.5 56
q48 0 106 -26zM414 146l26 122q-54 26 -97 26q-53 0 -87.5 -39t-46.5 -95q-9 -42 6 -75t55 -33q27 0 56 16.5t44 30.5t44 45v2zM435 684l-161 -103l-30 43l211 153l147 -153l-49 -43z" />
    <glyph glyph-name="atilde" unicode="&#xe3;" 
d="M453 331l11 51q10 45 -9 73t-61 28q-11 0 -24 -2t-23 -4t-25.5 -7.5t-22.5 -8t-25 -9.5t-23 -9l-3 66q102 37 162 37q74 0 108 -51.5t19 -121.5l-49 -232q-16 -80 -8 -145l-72 -9l-5 67q-68 -65 -146 -65q-74 0 -106 50.5t-16 124.5q17 81 75.5 137t136.5 56
q48 0 106 -26zM414 146l26 122q-54 26 -97 26q-53 0 -87.5 -39t-46.5 -95q-9 -42 6 -75t55 -33q27 0 56 16.5t44 30.5t44 45v2zM578 734l56 -25q-23 -41 -59 -68t-77 -27q-37 0 -81 31q-41 31 -62 31q-34 0 -78 -68l-57 22q34 51 69 80t81 29q16 0 31.5 -5.5t23 -10
t25.5 -16.5q2 -1 12 -8t16 -10.5t15 -7.5t16 -4q15 0 29.5 10.5t21.5 19.5t18 27z" />
    <glyph glyph-name="adieresis" unicode="&#xe4;" 
d="M453 331l11 51q10 45 -9 73t-61 28q-11 0 -24 -2t-23 -4t-25.5 -7.5t-22.5 -8t-25 -9.5t-23 -9l-3 66q102 37 162 37q74 0 108 -51.5t19 -121.5l-49 -232q-16 -80 -8 -145l-72 -9l-5 67q-68 -65 -146 -65q-74 0 -106 50.5t-16 124.5q17 81 75.5 137t136.5 56
q48 0 106 -26zM414 146l26 122q-54 26 -97 26q-53 0 -87.5 -39t-46.5 -95q-9 -42 6 -75t55 -33q27 0 56 16.5t44 30.5t44 45v2zM275 678q6 28 30.5 47.5t52.5 19.5t44.5 -19.5t10.5 -47.5t-30.5 -47.5t-52.5 -19.5t-44.5 19.5t-10.5 47.5zM454 678q6 28 30.5 47.5t52.5 19.5
t44.5 -19.5t10.5 -47.5t-30.5 -47.5t-52.5 -19.5t-44.5 19.5t-10.5 47.5z" />
    <glyph glyph-name="aring" unicode="&#xe5;" 
d="M453 331l11 51q10 45 -9 73t-61 28q-11 0 -24 -2t-23 -4t-25.5 -7.5t-22.5 -8t-25 -9.5t-23 -9l-3 66q102 37 162 37q74 0 108 -51.5t19 -121.5l-49 -232q-16 -80 -8 -145l-72 -9l-5 67q-68 -65 -146 -65q-74 0 -106 50.5t-16 124.5q17 81 75.5 137t136.5 56
q48 0 106 -26zM414 146l26 122q-54 26 -97 26q-53 0 -87.5 -39t-46.5 -95q-9 -42 6 -75t55 -33q27 0 56 16.5t44 30.5t44 45v2zM335 679q8 39 42.5 67t72.5 28t59.5 -28t13.5 -67t-42 -67t-72 -28t-60 28t-14 67zM398 679q-2 -13 5 -22.5t20 -9.5t24 9.5t13 22.5
q3 13 -4 22.5t-20 9.5t-24 -9.5t-14 -22.5z" />
    <glyph glyph-name="ae" unicode="&#xe6;" 
d="M400 312h145q5 27 7 53t-1.5 54.5t-19.5 46t-44 17.5q-27 0 -42.5 -19t-25.5 -64zM293 158l24 116q-20 17 -53 17q-47 0 -77 -41t-40 -91q-9 -43 6 -75t56 -32q22 0 37 8.5t24 26.5t13 31.5t10 39.5zM387 249l-24 -111q-6 -25 -6.5 -41t9.5 -30.5t34 -14.5q23 0 57 12
t49.5 20t55.5 29l14 -62q-120 -62 -194 -62q-29 0 -46.5 8t-35.5 29q-51 -37 -114 -37q-71 0 -100 50t-14 123q14 65 50.5 111t73 63.5t69.5 17.5q29 0 67 -10l7 33q24 106 -23 106q-16 0 -36 -7t-33 -14t-37 -21t-32 -18l-3 68q103 55 156 55q26 0 41 -7t35 -26
q45 33 100 33q20 0 38 -5.5t38.5 -21.5t29.5 -45.5t13 -77.5t-13 -118l-6 -29h-220z" />
    <glyph glyph-name="ccedilla" unicode="&#xe7;" 
d="M500 140l39 -53q-55 -48 -103 -72.5t-104 -25.5l-11 -20q37 -2 58 -21.5t13 -55.5q-8 -37 -43.5 -59t-74.5 -22q-46 0 -104 29l34 55q42 -21 74 -21q35 0 40 22q3 14 -11 19t-56 9q-13 1 -20 2l41 71q-70 17 -106.5 81.5t-10.5 183.5q31 147 113 215.5t175 68.5
q118 0 172 -119l-74 -43q-29 99 -111 99q-64 0 -119.5 -52t-79.5 -162q-24 -114 11.5 -165.5t97.5 -51.5q68 0 160 88z" />
    <glyph glyph-name="egrave" unicode="&#xe8;" 
d="M571 248h-356q-37 -196 110 -196q74 0 179 57l18 -67q-129 -53 -216 -53q-57 0 -96 23.5t-55.5 62t-20.5 88t9 101.5q25 117 99 199.5t186 82.5q50 0 84.5 -21.5t49 -51.5t20 -69t3.5 -65.5t-6 -49.5zM227 311h282q13 70 -13.5 121t-86.5 51q-114 0 -182 -172zM402 775
l147 -142l-49 -49l-165 129z" />
    <glyph glyph-name="eacute" unicode="&#xe9;" 
d="M571 248h-356q-37 -196 110 -196q74 0 179 57l18 -67q-129 -53 -216 -53q-57 0 -96 23.5t-55.5 62t-20.5 88t9 101.5q25 117 99 199.5t186 82.5q50 0 84.5 -21.5t49 -51.5t20 -69t3.5 -65.5t-6 -49.5zM227 311h282q13 70 -13.5 121t-86.5 51q-114 0 -182 -172zM537 775
l41 -62l-221 -129l-27 49z" />
    <glyph glyph-name="ecircumflex" unicode="&#xea;" 
d="M571 248h-356q-37 -196 110 -196q74 0 179 57l18 -67q-129 -53 -216 -53q-57 0 -96 23.5t-55.5 62t-20.5 88t9 101.5q25 117 99 199.5t186 82.5q50 0 84.5 -21.5t49 -51.5t20 -69t3.5 -65.5t-6 -49.5zM227 311h282q13 70 -13.5 121t-86.5 51q-114 0 -182 -172zM445 684
l-161 -103l-30 43l211 153l147 -153l-49 -43z" />
    <glyph glyph-name="edieresis" unicode="&#xeb;" 
d="M571 248h-356q-37 -196 110 -196q74 0 179 57l18 -67q-129 -53 -216 -53q-57 0 -96 23.5t-55.5 62t-20.5 88t9 101.5q25 117 99 199.5t186 82.5q50 0 84.5 -21.5t49 -51.5t20 -69t3.5 -65.5t-6 -49.5zM227 311h282q13 70 -13.5 121t-86.5 51q-114 0 -182 -172zM285 678
q6 28 30.5 47.5t52.5 19.5t44.5 -19.5t10.5 -47.5t-30.5 -47.5t-52.5 -19.5t-44.5 19.5t-10.5 47.5zM464 678q6 28 30.5 47.5t52.5 19.5t44.5 -19.5t10.5 -47.5t-30.5 -47.5t-52.5 -19.5t-44.5 19.5t-10.5 47.5z" />
    <glyph glyph-name="igrave" unicode="&#xec;" 
d="M276 0l100 472h-152l14 63h227l-114 -535h-75zM382 775l147 -142l-49 -49l-165 129z" />
    <glyph glyph-name="iacute" unicode="&#xed;" 
d="M276 0l100 472h-152l14 63h227l-114 -535h-75zM537 775l41 -62l-221 -129l-27 49z" />
    <glyph glyph-name="icircumflex" unicode="&#xee;" 
d="M276 0l100 472h-152l14 63h227l-114 -535h-75zM415 684l-161 -103l-30 43l211 153l147 -153l-49 -43z" />
    <glyph glyph-name="idieresis" unicode="&#xef;" 
d="M276 0l100 472h-152l14 63h227l-114 -535h-75zM275 678q6 28 30.5 47.5t52.5 19.5t44.5 -19.5t10.5 -47.5t-30.5 -47.5t-52.5 -19.5t-44.5 19.5t-10.5 47.5zM454 678q6 28 30.5 47.5t52.5 19.5t44.5 -19.5t10.5 -47.5t-30.5 -47.5t-52.5 -19.5t-44.5 19.5t-10.5 47.5z
" />
    <glyph glyph-name="eth" unicode="&#xf0;" 
d="M321 52q136 0 183 215q8 39 9.5 73t-5.5 68.5t-31.5 54.5t-66.5 20q-136 0 -181 -216q-9 -39 -10.5 -73t5 -68t31 -54t66.5 -20zM443 632l-148 -62l-37 34l145 63q-45 34 -119 53l54 22q73 -10 127 -50l119 50l39 -35l-117 -49q54 -53 78.5 -146.5t1.5 -203.5
q-66 -319 -278 -319q-38 0 -69.5 13t-59 45t-33.5 85.5t8 134.5q30 142 107 210.5t161 68.5q53 0 99 -50l3 2q-19 78 -81 134z" />
    <glyph glyph-name="ntilde" unicode="&#xf1;" 
d="M233 223l-47 -223h-75l57 269q35 167 33 266h72l-4 -98q39 49 94.5 79t110.5 30q61 0 84.5 -48.5t8.5 -120.5l-80 -377h-75l75 355q6 27 8 42.5t1.5 39t-12.5 35t-35 11.5q-62 0 -125 -65.5t-91 -194.5zM578 734l56 -25q-23 -41 -59 -68t-77 -27q-37 0 -81 31
q-41 31 -62 31q-34 0 -78 -68l-57 22q34 51 69 80t81 29q16 0 31.5 -5.5t23 -10t25.5 -16.5q2 -1 12 -8t16 -10.5t15 -7.5t16 -4q15 0 29.5 10.5t21.5 19.5t18 27z" />
    <glyph glyph-name="ograve" unicode="&#xf2;" 
d="M305 -11q-38 0 -69.5 13t-59 45t-33 85.5t8.5 134.5q16 74 46 130t68 87.5t77.5 46.5t79.5 15q54 0 90 -21t51.5 -51.5t20 -71.5t2 -72t-9.5 -63q-16 -74 -46 -130t-68 -87t-77.5 -46t-80.5 -15zM318 52q137 0 184 215q45 216 -92 216q-138 0 -183 -216q-47 -215 91 -215
zM402 775l147 -142l-49 -49l-165 129z" />
    <glyph glyph-name="oacute" unicode="&#xf3;" 
d="M305 -11q-38 0 -69.5 13t-59 45t-33 85.5t8.5 134.5q16 74 46 130t68 87.5t77.5 46.5t79.5 15q54 0 90 -21t51.5 -51.5t20 -71.5t2 -72t-9.5 -63q-16 -74 -46 -130t-68 -87t-77.5 -46t-80.5 -15zM318 52q137 0 184 215q45 216 -92 216q-138 0 -183 -216q-47 -215 91 -215
zM537 775l41 -62l-221 -129l-27 49z" />
    <glyph glyph-name="ocircumflex" unicode="&#xf4;" 
d="M305 -11q-38 0 -69.5 13t-59 45t-33 85.5t8.5 134.5q16 74 46 130t68 87.5t77.5 46.5t79.5 15q54 0 90 -21t51.5 -51.5t20 -71.5t2 -72t-9.5 -63q-16 -74 -46 -130t-68 -87t-77.5 -46t-80.5 -15zM318 52q137 0 184 215q45 216 -92 216q-138 0 -183 -216q-47 -215 91 -215
zM445 684l-161 -103l-30 43l211 153l147 -153l-49 -43z" />
    <glyph glyph-name="otilde" unicode="&#xf5;" 
d="M305 -11q-38 0 -69.5 13t-59 45t-33 85.5t8.5 134.5q16 74 46 130t68 87.5t77.5 46.5t79.5 15q54 0 90 -21t51.5 -51.5t20 -71.5t2 -72t-9.5 -63q-16 -74 -46 -130t-68 -87t-77.5 -46t-80.5 -15zM318 52q137 0 184 215q45 216 -92 216q-138 0 -183 -216q-47 -215 91 -215
zM578 734l56 -25q-23 -41 -59 -68t-77 -27q-37 0 -81 31q-41 31 -62 31q-34 0 -78 -68l-57 22q34 51 69 80t81 29q16 0 31.5 -5.5t23 -10t25.5 -16.5q2 -1 12 -8t16 -10.5t15 -7.5t16 -4q15 0 29.5 10.5t21.5 19.5t18 27z" />
    <glyph glyph-name="odieresis" unicode="&#xf6;" 
d="M305 -11q-38 0 -69.5 13t-59 45t-33 85.5t8.5 134.5q16 74 46 130t68 87.5t77.5 46.5t79.5 15q54 0 90 -21t51.5 -51.5t20 -71.5t2 -72t-9.5 -63q-16 -74 -46 -130t-68 -87t-77.5 -46t-80.5 -15zM318 52q137 0 184 215q45 216 -92 216q-138 0 -183 -216q-47 -215 91 -215
zM285 678q6 28 30.5 47.5t52.5 19.5t44.5 -19.5t10.5 -47.5t-30.5 -47.5t-52.5 -19.5t-44.5 19.5t-10.5 47.5zM464 678q6 28 30.5 47.5t52.5 19.5t44.5 -19.5t10.5 -47.5t-30.5 -47.5t-52.5 -19.5t-44.5 19.5t-10.5 47.5z" />
    <glyph glyph-name="divide" unicode="&#xf7;" 
d="M645 393v-66h-550v66h550zM425 210q0 -22 -16.5 -38.5t-38.5 -16.5t-38.5 16.5t-16.5 38.5t16.5 38.5t38.5 16.5t38.5 -16.5t16.5 -38.5zM425 510q0 -22 -16.5 -38.5t-38.5 -16.5t-38.5 16.5t-16.5 38.5t16.5 38.5t38.5 16.5t38.5 -16.5t16.5 -38.5z" />
    <glyph glyph-name="oslash" unicode="&#xf8;" 
d="M511 514l47 57l46 -37l-54 -64q42 -71 14 -203q-16 -74 -46.5 -130t-68.5 -87t-77.5 -46t-79.5 -15q-63 0 -108 36l-47 -59l-46 36l57 68q-38 72 -10 197q16 74 46.5 130t68.5 87.5t77.5 46.5t79.5 15q60 0 101 -32zM205 140l261 318q-26 25 -69 25t-76.5 -20.5
t-55 -56.5t-34 -70.5t-20.5 -74.5q-14 -67 -6 -121zM496 403l-266 -323q28 -28 75 -28q137 0 185 221q16 71 6 130z" />
    <glyph glyph-name="ugrave" unicode="&#xf9;" 
d="M482 316l47 219h75l-55 -259q-38 -177 -36 -276h-71l5 103q-38 -47 -94.5 -80.5t-105.5 -33.5q-67 0 -90.5 49.5t-7.5 124.5l79 372h75l-75 -350q-6 -26 -8 -43t-1.5 -41t12.5 -36.5t35 -12.5q62 0 125.5 69t90.5 195zM382 775l147 -142l-49 -49l-165 129z" />
    <glyph glyph-name="uacute" unicode="&#xfa;" 
d="M482 316l47 219h75l-55 -259q-38 -177 -36 -276h-71l5 103q-38 -47 -94.5 -80.5t-105.5 -33.5q-67 0 -90.5 49.5t-7.5 124.5l79 372h75l-75 -350q-6 -26 -8 -43t-1.5 -41t12.5 -36.5t35 -12.5q62 0 125.5 69t90.5 195zM537 775l41 -62l-221 -129l-27 49z" />
    <glyph glyph-name="ucircumflex" unicode="&#xfb;" 
d="M482 316l47 219h75l-55 -259q-38 -177 -36 -276h-71l5 103q-38 -47 -94.5 -80.5t-105.5 -33.5q-67 0 -90.5 49.5t-7.5 124.5l79 372h75l-75 -350q-6 -26 -8 -43t-1.5 -41t12.5 -36.5t35 -12.5q62 0 125.5 69t90.5 195zM445 684l-161 -103l-30 43l211 153l147 -153
l-49 -43z" />
    <glyph glyph-name="udieresis" unicode="&#xfc;" 
d="M482 316l47 219h75l-55 -259q-38 -177 -36 -276h-71l5 103q-38 -47 -94.5 -80.5t-105.5 -33.5q-67 0 -90.5 49.5t-7.5 124.5l79 372h75l-75 -350q-6 -26 -8 -43t-1.5 -41t12.5 -36.5t35 -12.5q62 0 125.5 69t90.5 195zM285 678q6 28 30.5 47.5t52.5 19.5t44.5 -19.5
t10.5 -47.5t-30.5 -47.5t-52.5 -19.5t-44.5 19.5t-10.5 47.5zM464 678q6 28 30.5 47.5t52.5 19.5t44.5 -19.5t10.5 -47.5t-30.5 -47.5t-52.5 -19.5t-44.5 19.5t-10.5 47.5z" />
    <glyph glyph-name="yacute" unicode="&#xfd;" 
d="M559 535h80l-305 -502q-25 -41 -41.5 -65t-46.5 -59.5t-62.5 -53.5t-67.5 -18q-49 0 -77.5 32.5t-33.5 83.5l70 33q13 -86 55 -86q19 0 41 18t32 32.5t27 39.5l52 81l-73 464h81l52 -364zM537 775l41 -62l-221 -129l-27 49z" />
    <glyph glyph-name="thorn" unicode="&#xfe;" 
d="M347 742l-53 -244l2 -2q60 50 126 50q38 0 70.5 -14.5t59.5 -47.5t33 -87t-8 -133q-15 -72 -48.5 -128t-74 -86.5t-79.5 -45.5t-74 -15q-55 0 -108 31l-48 -225h-75l202 947h75zM272 390l-63 -294q46 -44 93 -44q68 0 123.5 57t77.5 158q11 66 7.5 108t-23 66t-39 33
t-40.5 9q-73 0 -136 -93z" />
    <glyph glyph-name="ydieresis" unicode="&#xff;" 
d="M559 535h80l-305 -502q-25 -41 -41.5 -65t-46.5 -59.5t-62.5 -53.5t-67.5 -18q-49 0 -77.5 32.5t-33.5 83.5l70 33q13 -86 55 -86q19 0 41 18t32 32.5t27 39.5l52 81l-73 464h81l52 -364zM285 678q6 28 30.5 47.5t52.5 19.5t44.5 -19.5t10.5 -47.5t-30.5 -47.5
t-52.5 -19.5t-44.5 19.5t-10.5 47.5zM464 678q6 28 30.5 47.5t52.5 19.5t44.5 -19.5t10.5 -47.5t-30.5 -47.5t-52.5 -19.5t-44.5 19.5t-10.5 47.5z" />
    <glyph glyph-name="dcroat" unicode="&#x111;" 
d="M409 144l62 295q-44 44 -91 44q-65 0 -121.5 -55t-78.5 -160q-11 -65 -7.5 -107t22.5 -66t39 -33.5t41 -9.5q76 0 134 92zM581 600l-87 -409q-24 -115 -14 -193l-73 -9l-4 60q-46 -35 -73 -47.5t-70 -12.5q-38 0 -70 14.5t-59 47.5t-33 87t8 133q15 72 48 128t73.5 86.5
t79.5 45.5t74 15q56 0 106 -31l19 85h-124l12 58h124l18 84h75l-18 -84h115l-12 -58h-115z" />
    <glyph glyph-name="Hbar" unicode="&#x126;" 
d="M287 525l-26 -120h250l26 120h-250zM550 588l28 132h75l-28 -132h78l-13 -63h-78l-112 -525h-75l73 342h-250l-73 -342h-75l112 525h-80l13 63h80l28 132h75l-28 -132h250z" />
    <glyph glyph-name="hbar" unicode="&#x127;" 
d="M351 742l-20 -95h137l-13 -59h-137l-28 -130q85 88 180 88q23 0 38.5 -3.5t32.5 -17.5t24 -39t6 -70.5t-14 -108.5l-65 -307h-75l67 313q35 170 -32 170q-39 0 -81 -29t-69 -68q-20 -28 -33.5 -63.5t-18.5 -55.5t-15 -68l-42 -199h-75l125 588h-104l13 59h104l20 95h75z
" />
    <glyph glyph-name="dotlessi" unicode="&#x131;" 
d="M276 0l100 472h-152l14 63h227l-114 -535h-75z" />
    <glyph glyph-name="IJ" unicode="&#x132;" 
d="M348 720l-13 -63h-56l-127 -594h56l-13 -63h-185l13 63h54l127 594h-54l13 63h185zM484 720h208l-103 -487q-53 -247 -220 -247q-79 0 -108.5 52.5t-7.5 151.5l20 90h75l-17 -79q-5 -22 -7.5 -35.5t-3.5 -38.5t4 -40t20 -27t40 -12q90 0 129 182l91 427h-133z" />
    <glyph glyph-name="ij" unicode="&#x133;" 
d="M132 535h194l-114 -535h-75l100 472h-119zM326 734q26 0 40.5 -18t9.5 -45q-6 -27 -28.5 -45t-48.5 -18t-40.5 18t-8.5 45q5 27 27.5 45t48.5 18zM421 535h196l-105 -495q-20 -96 -77.5 -149.5t-142.5 -53.5q-75 0 -116 55l58 58q26 -50 78 -50q95 0 125 140l91 432h-121
zM615 734q26 0 40.5 -18t9.5 -45q-6 -27 -28.5 -45t-48.5 -18t-40.5 18t-8.5 45q5 27 27 45t49 18z" />
    <glyph glyph-name="kgreenlandic" unicode="&#x138;" 
d="M357 290l201 -290h-99l-158 246l-41 -34l-45 -212h-75l116 546h75l-52 -245q97 80 153 133q80 74 94 84q45 31 105 28l-13 -62q-32 3 -61 -14.5t-74 -63.5q-40 -42 -126 -116z" />
    <glyph glyph-name="Ldot" unicode="&#x13f;" 
d="M383 720l-140 -657h312l-13 -63h-387l153 720h75zM491 362q6 28 30.5 47.5t52.5 19.5t44.5 -19.5t10.5 -47.5t-30.5 -47.5t-52.5 -19.5t-44.5 19.5t-10.5 47.5z" />
    <glyph glyph-name="ldot" unicode="&#x140;" 
d="M268 0l144 679h-152l14 63h227l-158 -742h-75zM602 377q6 28 30.5 47.5t52.5 19.5t44.5 -19.5t10.5 -47.5t-30.5 -47.5t-52.5 -19.5t-44.5 19.5t-10.5 47.5z" />
    <glyph glyph-name="Lslash" unicode="&#x141;" 
d="M311 432l201 88l-18 -81l-197 -74l-65 -302h309l-13 -63h-384l71 334l-124 -51l15 71l123 46l68 320h75z" />
    <glyph glyph-name="lslash" unicode="&#x142;" 
d="M445 478l149 62l-16 -74l-149 -62l-86 -404h-75l79 372l-157 -66l16 73l157 67l49 233h-152l14 63h227z" />
    <glyph glyph-name="napostrophe" unicode="&#x149;" 
d="M134 487l14 68q40 8 71 32q-28 2 -43 21.5t-9 47.5q7 34 34.5 56t61.5 22q36 0 54 -27t10 -64q-12 -58 -70 -99.5t-123 -56.5zM313 223l-47 -223h-75l57 269q35 167 33 266h72l-4 -98q39 49 94.5 79t110.5 30q61 0 84.5 -48.5t8.5 -120.5l-80 -377h-75l75 355
q6 27 8 42.5t1.5 39t-12.5 35t-35 11.5q-62 0 -125 -65.5t-91 -194.5z" />
    <glyph glyph-name="Eng" unicode="&#x14a;" 
d="M250 300l-64 -300h-75l77 362q47 220 52 358h72l-11 -131l2 -2q42 65 99 106t112 41q61 0 82 -68t-1 -159l-97 -455q-21 -102 -91 -158.5t-154 -56.5q-59 0 -112 40l49 55q35 -32 86 -32q52 0 92 40t54 108l91 429q8 37 11.5 59.5t5 55.5t-9.5 50t-34 17q-61 0 -130 -92
t-106 -267z" />
    <glyph glyph-name="eng" unicode="&#x14b;" 
d="M233 223l-47 -223h-75l57 269q35 167 33 266h72l-4 -98q39 49 94.5 79t110.5 30q61 0 84.5 -48.5t8.5 -120.5l-69 -325q-12 -59 -41.5 -103.5t-66 -67.5t-71 -33.5t-66.5 -10.5q-69 0 -124 50l54 51q38 -38 93 -38q56 0 94.5 43t51.5 105l65 307q6 27 8 42.5t1.5 39
t-12.5 35t-35 11.5q-62 0 -125 -65.5t-91 -194.5z" />
    <glyph glyph-name="OE" unicode="&#x152;" 
d="M744 720l-13 -63h-203l-54 -253h138l-14 -63h-138l-59 -278h211l-13 -63h-269q-13 -5 -41 -11q-21 -3 -41 -3q-44 0 -76 13.5t-50.5 33.5t-28 53t-11.5 63t2 72.5t9.5 72.5t14.5 71q7 36 12 56t18.5 64t27 72t38 65t52.5 59t68 37.5t87 15.5q35 0 72 -14h261zM326 63
l126 593q-36 15 -57 15q-148 0 -212 -304q-21 -98 -24.5 -162.5t10.5 -97.5t35.5 -45.5t57.5 -12.5q29 0 64 14z" />
    <glyph glyph-name="oe" unicode="&#x153;" 
d="M607 249h-219l-24 -111q-11 -30 -5.5 -58t41.5 -28q23 0 57 12t49.5 20t55.5 29l14 -62q-120 -62 -194 -62q-48 0 -81 33q-49 -33 -78 -33q-31 0 -58.5 14t-50.5 46t-27 85.5t10 132.5q16 75 45 132t63.5 87.5t67.5 45t64 14.5q30 0 76 -29q49 29 94 29q14 0 28.5 -3.5
t32 -12.5t30 -27t21.5 -44t9 -68t-11 -94zM277 80l82 388q-17 15 -32 15q-39 0 -84.5 -50.5t-70.5 -165.5q-19 -82 -9 -130t27.5 -66.5t37.5 -18.5q25 0 49 28zM401 312h144q5 27 7 53t-1.5 54.5t-19.5 46t-44 17.5q-26 0 -41.5 -19t-25.5 -64z" />
    <glyph glyph-name="Scaron" unicode="&#x160;" 
d="M639 644l-57 -54q-22 25 -38 39.5t-43.5 28t-56.5 13.5q-49 0 -89.5 -30.5t-50.5 -79.5q-7 -34 6 -62.5t70 -68.5l50 -35q88 -62 113 -101.5t12 -101.5q-21 -96 -90.5 -151t-165.5 -55q-126 0 -193 117l68 46q18 -45 53.5 -72.5t84.5 -27.5q57 0 105 38t61 95
q10 47 -5.5 73t-93.5 81l-56 39q-56 39 -82 79.5t-13 101.5q17 82 82.5 130t149.5 48q102 0 179 -90zM463 859l162 103l30 -43l-212 -153l-146 153l48 43z" />
    <glyph glyph-name="scaron" unicode="&#x161;" 
d="M567 484l-46 -61q-72 60 -130 60q-35 0 -66 -23t-39 -58q-12 -55 84 -93q37 -15 58 -26t45.5 -31t32 -48.5t-0.5 -66.5q-14 -64 -71.5 -106t-122.5 -42q-117 0 -201 93l54 60q27 -37 69 -63.5t86 -26.5q40 0 71 21.5t39 60.5q5 25 1 43t-21.5 31t-28.5 19t-38 17
q-34 14 -54 24.5t-43.5 30t-31.5 46t-1 60.5q13 59 69.5 100t125.5 41q87 0 160 -62zM433 674l162 103l30 -43l-212 -153l-146 153l48 43z" />
    <glyph glyph-name="Tbar" unicode="&#x166;" 
d="M681 657h-205l-57 -268h131l-13 -59h-131l-70 -330h-75l70 330h-128l13 59h128l57 268h-201l13 63h481z" />
    <glyph glyph-name="tbar" unicode="&#x167;" 
d="M350 371h191l-14 -63h-191l-30 -141q-5 -26 -7 -41t0 -35t15 -29.5t37 -9.5q71 0 133 94l68 -18q-94 -139 -216 -139q-70 0 -96 44t-3 158l24 117h-115l14 63h115l21 101h-115l14 63h115l35 164h75l-35 -164h191l-14 -63h-191z" />
    <glyph glyph-name="Ydieresis" unicode="&#x178;" 
d="M366 394l207 326h83l-272 -416l-65 -304h-75l65 304l-96 416h83zM295 863q6 28 30.5 47.5t52.5 19.5t44.5 -19.5t10.5 -47.5t-30.5 -47.5t-52.5 -19.5t-44.5 19.5t-10.5 47.5zM474 863q6 28 30.5 47.5t52.5 19.5t44.5 -19.5t10.5 -47.5t-30.5 -47.5t-52.5 -19.5
t-44.5 19.5t-10.5 47.5z" />
    <glyph glyph-name="Zcaron" unicode="&#x17d;" 
d="M267 720h375l-11 -53l-425 -604h320l-13 -63h-410l11 54l429 603h-289zM463 859l162 103l30 -43l-212 -153l-146 153l48 43z" />
    <glyph glyph-name="zcaron" unicode="&#x17e;" 
d="M610 535l-12 -56l-396 -416h319l-13 -63h-416l12 55l397 417h-265l14 63h360zM433 674l162 103l30 -43l-212 -153l-146 153l48 43z" />
    <glyph glyph-name="florin" unicode="&#x192;" 
d="M465 495h110l-13 -63h-118l-128 -378q-34 -98 -78 -139.5t-121 -41.5h-54l13 63h42q54 0 77.5 22.5t51.5 105.5l124 368h-112l13 63h119l21 61q35 102 81.5 144t122.5 42h51l-14 -63h-56q-42 0 -65.5 -29.5t-55.5 -122.5z" />
    <glyph glyph-name="circumflex" unicode="&#x2c6;" 
d="M445 684l-161 -103l-30 43l211 153l147 -153l-49 -43z" />
    <glyph glyph-name="caron" unicode="&#x2c7;" 
d="M443 674l162 103l30 -43l-212 -153l-146 153l48 43z" />
    <glyph glyph-name="uni02C9" unicode="&#x2c9;" 
d="M585 610h-311l13 63h311z" />
    <glyph glyph-name="breve" unicode="&#x2d8;" 
d="M276 748h69q-6 -42 19.5 -60t71.5 -18q54 0 88.5 16t48.5 62h69q-19 -73 -74 -107t-133 -34q-85 0 -128 31.5t-31 109.5z" />
    <glyph glyph-name="dotaccent" unicode="&#x2d9;" 
d="M375 677q6 28 30.5 47.5t52.5 19.5t44.5 -19.5t10.5 -47.5t-30.5 -47.5t-52.5 -19.5t-44.5 19.5t-10.5 47.5z" />
    <glyph glyph-name="ring" unicode="&#x2da;" 
d="M350 679q8 39 42.5 67t72.5 28t59.5 -28t13.5 -67t-42 -67t-72 -28t-60 28t-14 67zM413 679q-2 -13 5 -22.5t20 -9.5t24 9.5t13 22.5q3 13 -4 22.5t-20 9.5t-24 -9.5t-14 -22.5z" />
    <glyph glyph-name="ogonek" unicode="&#x2db;" 
d="M344 -104l-14 -64q-61 -22 -107 -22q-54 0 -86.5 24.5t-21.5 75.5q16 75 115 115h106q-10 -7 -49 -28t-65.5 -42t-31.5 -44q-6 -25 6.5 -33.5t40.5 -8.5q34 0 107 27z" />
    <glyph glyph-name="tilde" unicode="&#x2dc;" 
d="M593 734l56 -25q-23 -41 -59 -68t-77 -27q-37 0 -81 31q-41 31 -62 31q-34 0 -78 -68l-57 22q34 51 69 80t81 29q16 0 31.5 -5.5t23 -10t25.5 -16.5q2 -1 12 -8t16 -10.5t15 -7.5t16 -4q15 0 29.5 10.5t21.5 19.5t18 27z" />
    <glyph glyph-name="hungarumlaut" unicode="&#x2dd;" 
d="M619 768l42 -62l-221 -129l-27 49zM432 775l42 -62l-222 -129l-26 49z" />
    <glyph glyph-name="Gamma" unicode="&#x393;" 
d="M302 720h359l-13 -63h-284l-140 -657h-75z" />
    <glyph glyph-name="Theta" unicode="&#x398;" 
d="M297 -14q-67 0 -119 42.5t-77 126t0 205.5q19 89 60 162.5t91 118.5t103 69t101 24q67 0 120 -42.5t78 -126t-1 -205.5q-23 -112 -83 -199.5t-132 -131t-141 -43.5zM310 49q32 0 69.5 18.5t76.5 54.5t72.5 98t49.5 140q16 86 9.5 145.5t-32 96t-54.5 53t-58 16.5
q-76 0 -155.5 -81.5t-111.5 -229.5q-16 -87 -10 -146t31 -96t54 -53t59 -16zM256 398h257l-14 -63h-257z" />
    <glyph glyph-name="Phi" unicode="&#x3a6;" 
d="M417 734h75l-14 -67q58 0 100 -28t61.5 -71.5t26 -98t-7.5 -108.5q-16 -74 -57.5 -143t-109.5 -117t-144 -48l-14 -67h-75l14 66q-57 1 -98.5 28.5t-60.5 71t-25.5 97.5t7.5 108q12 55 39 109.5t66 99.5t92.5 73t110.5 28zM285 111l105 497q-42 1 -81 -23.5t-66 -63.5
t-46 -81.5t-27 -82.5q-10 -38 -7.5 -81t13 -80t39 -61.5t70.5 -23.5zM465 608l-105 -496q43 0 82 23.5t66.5 61.5t46.5 80t27 82q11 38 8.5 82t-12.5 81t-39.5 61.5t-73.5 24.5z" />
    <glyph glyph-name="uni03A9" unicode="&#x3a9;" 
d="M328 0l31 144q44 3 81.5 25t62.5 58t41 74.5t25 80.5q10 47 11 93.5t-8.5 92.5t-40.5 74.5t-81 28.5q-49 0 -94.5 -27.5t-77 -71t-52.5 -90.5t-31 -93q-10 -59 -7.5 -113t37 -92t96.5 -40l-31 -144h-250l13 63h175l9 41q-82 21 -109.5 106.5t-6.5 185.5q13 62 43 121
t73 108t102.5 79t125.5 30q44 0 82 -17.5t70 -57t39.5 -104.5t-9.5 -159q-12 -60 -39.5 -118t-76 -108t-106.5 -65l-9 -42h157l-13 -63h-232z" />
    <glyph glyph-name="alpha" unicode="&#x3b1;" 
d="M257 52q46 0 99 65.5t74 163.5q6 29 6 62t-7 65.5t-27.5 53.5t-51.5 21q-44 0 -94 -61t-73 -169q-21 -100 3.5 -150.5t70.5 -50.5zM109 259q10 46 31 93.5t52.5 92t76.5 73t94 28.5q68 0 102.5 -45t37.5 -116l91 168l64 -18l-151 -260l19 -275h-72l-5 156h-2
q-77 -167 -206 -167q-30 0 -56.5 12t-52.5 42.5t-31.5 83t8.5 132.5z" />
    <glyph glyph-name="delta" unicode="&#x3b4;" 
d="M491 241q15 70 -10.5 126.5t-92.5 56.5t-115 -59t-63 -130q-6 -42 -2 -83t30.5 -72t69.5 -31q66 0 117 61t66 131zM350 657l171 -217q68 -87 45 -198q-22 -100 -98 -178t-173 -78q-94 0 -137 78t-22 174q17 83 59.5 138.5t89.5 79t104 31.5l-110 146l18 87h316l-13 -63
h-250z" />
    <glyph glyph-name="epsilon" unicode="&#x3b5;" 
d="M415 315l-13 -63q-91 0 -146 -25.5t-68 -87.5q-6 -30 24 -60t106 -30q94 0 167 68l60 -29q-104 -102 -237 -102q-99 0 -154 44t-40 117q21 99 158 140q-85 44 -69 116q12 59 77 101t144 42q67 0 115.5 -27t71.5 -74l-69 -27q-34 65 -123 65q-39 0 -67.5 -8t-43 -21.5
t-21 -24.5t-8.5 -22q-10 -46 30.5 -70t105.5 -22z" />
    <glyph glyph-name="uni03BC" unicode="&#x3bc;" 
d="M410 0l10 45q-53 -56 -120 -56q-72 0 -100 52l-58 -271h-75l163 765h75l-66 -311q-20 -95 3.5 -133.5t65.5 -38.5q43 0 86 39t65 140l65 304h75l-114 -535h-75z" />
    <glyph glyph-name="pi" unicode="&#x3c0;" 
d="M162 535h504l-14 -63h-100l-100 -472h-75l100 472h-154l-100 -472h-75l100 472h-100z" />
    <glyph glyph-name="sigma" unicode="&#x3c3;" 
d="M658 536l-13 -61l-160 9q41 -38 53.5 -102t-2.5 -125q-23 -108 -98 -188t-170 -80q-50 0 -86.5 25.5t-53.5 65t-23 88.5t6 96q22 105 98 187.5t187 83.5zM280 52q66 0 116.5 70t66.5 146q8 30 5.5 66t-11 66.5t-32 51.5t-56.5 21q-66 0 -116.5 -67t-65.5 -140
q-11 -62 -6.5 -103t23.5 -66t38.5 -35t37.5 -10z" />
    <glyph glyph-name="tau" unicode="&#x3c4;" 
d="M622 535l-14 -63h-166l-100 -472h-75l100 472h-71q-68 0 -106 -18l13 64q37 17 81 17h338z" />
    <glyph glyph-name="uni03D5" unicode="&#x3d5;" 
d="M441 479l-90 -423q110 24 151 211q39 189 -61 212zM483 676l-29 -133q74 -11 112.5 -77.5t10.5 -198.5q-27 -129 -93.5 -196.5t-146.5 -78.5l-25 -118h-63l25 118q-73 11 -111.5 76.5t-10.5 198.5q28 130 94 197.5t145 78.5l29 133h63zM288 56l90 423q-112 -23 -151 -212
q-41 -188 61 -211z" />
    <glyph glyph-name="uni2010" unicode="&#x2010;" 
d="M500 327h-260l13 63h260z" />
    <glyph glyph-name="endash" unicode="&#x2013;" 
d="M546 327h-352l13 63h352z" />
    <glyph glyph-name="emdash" unicode="&#x2014;" 
d="M670 327h-600l13 63h600z" />
    <glyph glyph-name="underscoredbl" unicode="&#x2017;" 
d="M600 -108h-600v36h600v-36zM600 -216h-600v36h600v-36z" />
    <glyph glyph-name="quoteleft" unicode="&#x2018;" 
d="M545 734l-14 -68q-42 -8 -71 -32q27 -2 42 -21.5t9 -47.5q-7 -34 -34 -56t-61 -22q-36 0 -54 27t-10 64q12 58 69.5 99.5t123.5 56.5z" />
    <glyph glyph-name="quoteright" unicode="&#x2019;" 
d="M336 487l14 68q40 8 71 32q-28 2 -43 21.5t-9 47.5q7 34 34.5 56t61.5 22q36 0 54 -27t10 -64q-12 -58 -70 -99.5t-123 -56.5z" />
    <glyph glyph-name="quotesinglbase" unicode="&#x201a;" 
d="M208 -112l14 68q40 8 71 32q-28 2 -43 21.5t-9 47.5q7 34 34.5 56t61.5 22q36 0 54 -27t10 -64q-12 -58 -70 -99.5t-123 -56.5z" />
    <glyph glyph-name="quotereversed" unicode="&#x201b;" 
d="M560 554l-14 -67q-60 15 -99.5 56t-27.5 100q8 37 37 64t65 27q34 0 51.5 -22t10.5 -56q-6 -28 -29 -47.5t-51 -21.5q19 -23 57 -33z" />
    <glyph glyph-name="quotedblleft" unicode="&#x201c;" 
d="M436 734l-14 -68q-42 -8 -71 -32q27 -2 42 -21.5t9 -47.5q-7 -34 -34 -56t-61 -22q-36 0 -54 27t-10 64q12 58 69.5 99.5t123.5 56.5zM654 734l-14 -68q-42 -8 -71 -32q27 -2 42 -21.5t9 -47.5q-7 -34 -34 -56t-61 -22q-36 0 -54 27t-10 64q12 58 69.5 99.5t123.5 56.5z
" />
    <glyph glyph-name="quotedblright" unicode="&#x201d;" 
d="M226 487l14 68q40 8 71 32q-28 2 -43 21.5t-9 47.5q7 34 34.5 56t61.5 22q36 0 54 -27t10 -64q-12 -58 -70 -99.5t-123 -56.5zM444 487l14 68q40 8 71 32q-28 2 -43 21.5t-9 47.5q7 34 34.5 56t61.5 22q36 0 54 -27t10 -64q-12 -58 -70 -99.5t-123 -56.5z" />
    <glyph glyph-name="quotedblbase" unicode="&#x201e;" 
d="M98 -112l15 68q40 8 70 32q-27 2 -42 21.5t-9 47.5q7 34 34.5 56t61.5 22q36 0 53.5 -27t9.5 -64q-12 -58 -69.5 -99.5t-123.5 -56.5zM316 -112l15 68q40 8 70 32q-27 2 -42 21.5t-9 47.5q7 34 34.5 56t61.5 22q36 0 53.5 -27t9.5 -64q-12 -58 -69.5 -99.5t-123.5 -56.5z
" />
    <glyph glyph-name="dagger" unicode="&#x2020;" 
d="M408 720h90l-49 -198l129 7l-16 -79l-127 7l-11 -81l-91 -376h-66l69 376l23 81l-129 -7l16 79l127 -7z" />
    <glyph glyph-name="daggerdbl" unicode="&#x2021;" 
d="M364 474l-130 -7l17 79l127 -7l31 181h89l-45 -181l129 7l-17 -79l-126 7l-49 -228l130 7l-17 -79l-127 7l-31 -181h-89l45 181l-129 -7l17 79l126 -7z" />
    <glyph glyph-name="bullet" unicode="&#x2022;" 
d="M200 384q0 41 29.5 69t70.5 28t70.5 -28t29.5 -69t-29.5 -69t-70.5 -28t-70.5 28t-29.5 69z" />
    <glyph glyph-name="ellipsis" unicode="&#x2026;" 
d="M98 -14q-30 0 -47 20.5t-11 49.5t32 49.5t56 20.5t46.5 -20t10.5 -50q-6 -29 -31.5 -49.5t-55.5 -20.5zM298 -14q-30 0 -47 20.5t-11 49.5t32 49.5t56 20.5t46.5 -20t10.5 -50q-6 -29 -31.5 -49.5t-55.5 -20.5zM498 -14q-30 0 -47 20.5t-11 49.5t32 49.5t56 20.5
t46.5 -20t10.5 -50q-6 -29 -31.5 -49.5t-55.5 -20.5z" />
    <glyph glyph-name="perthousand" unicode="&#x2030;" 
d="M574 183q10 51 -12 51q-29 0 -53.5 -50t-33.5 -91q-12 -52 13 -52q29 0 53.5 52t32.5 90zM468 734h54l-461 -748h-54zM278 628q10 51 -12 51q-29 0 -53.5 -50t-33.5 -91q-9 -52 13 -52q28 0 52 50.5t34 91.5zM413 101q8 41 27.5 81.5t55.5 73.5t78 33q43 0 57.5 -30.5
t5.5 -76.5q-9 -43 -28.5 -84.5t-55.5 -76.5t-79 -35q-46 0 -58.5 33t-2.5 82zM118 546q15 68 57.5 128t103.5 60q43 0 57.5 -31t4.5 -76q-9 -42 -28 -84t-55 -77t-79 -35q-46 0 -58.5 33t-2.5 82zM187 101q8 41 27.5 81.5t55.5 73.5t78 33q43 0 57.5 -30.5t5.5 -76.5
q-9 -43 -28.5 -84.5t-55.5 -76.5t-79 -35q-46 0 -58.5 33t-2.5 82zM348 183q10 51 -12 51q-29 0 -53.5 -50t-33.5 -91q-12 -52 13 -52q29 0 53.5 52t32.5 90z" />
    <glyph glyph-name="guilsinglleft" unicode="&#x2039;" 
d="M523 615l37 -48l-269 -211l179 -211l-58 -50l-217 261z" />
    <glyph glyph-name="guilsinglright" unicode="&#x203a;" 
d="M339 615l219 -259l-330 -261l-36 50l269 211l-179 211z" />
    <glyph glyph-name="exclamdbl" unicode="&#x203c;" 
d="M372 720l-120 -501h-67l89 501h98zM102 64q7 32 35.5 54.5t61.5 22.5t52 -22t12 -55t-35.5 -55.5t-61.5 -22.5t-52 22.5t-12 55.5zM632 720l-120 -501h-67l89 501h98zM361 64q7 32 35.5 54.5t61.5 22.5t52 -22t12 -55t-35.5 -55.5t-61.5 -22.5t-52 22.5t-12 55.5z" />
    <glyph glyph-name="uni203E" unicode="&#x203e;" 
d="M592 -104h-464v55h464v-55z" />
    <glyph glyph-name="fraction" unicode="&#x2044;" 
d="M293 720h58l-483 -720h-56z" />
    <glyph glyph-name="n.superior" unicode="&#x207f;" 
d="M350 540l-29 -134h-50l35 161q21 93 18 160h48l-2 -59q26 29 61.5 47.5t71.5 18.5q40 0 56 -29.5t7 -72.5l-48 -226h-50l46 213q3 15 4.5 25t0.5 22.5t-9.5 19t-23.5 6.5q-41 0 -80.5 -37.5t-55.5 -114.5z" />
    <glyph glyph-name="franc" unicode="&#x20a3;" 
d="M482 720l-13 -63h-251l-53 -250h188l-14 -63h-188l-73 -344h-60l153 720h311zM443 481l-7 -91q37 49 69.5 75t72.5 26q34 0 50.5 -25.5t15 -61.5t-8.5 -74h-55q1 3 2 10q9 28 7.5 61.5t-26.5 33.5q-37 0 -88 -63t-74 -171l-43 -201h-55l59 276q23 107 28 205h53z" />
    <glyph glyph-name="peseta" unicode="&#x20a7;" 
d="M44 0l153 720h139q79 0 110 -57t9 -163q-23 -110 -86.5 -163.5t-153.5 -53.5h-51l-60 -283h-60zM178 346h67q54 0 94.5 39.5t55.5 113.5q34 158 -80 158h-71zM650 348l-9 -42h-125l-42 -200q-9 -26 -5 -50.5t34 -24.5q44 0 87 61l44 -11q-61 -92 -141 -92q-46 0 -64 29.5
t-2 103.5l39 184h-75l9 42h75l23 107h50l-23 -107h125z" />
    <glyph glyph-name="Euro" unicode="&#x20ac;" 
d="M653 564h-75q2 8 2 24q0 37 -22.5 60t-61.5 23q-136 0 -201 -209h202l-12 -57h-206q-14 -46 -18 -81h185l-12 -57h-182q-4 -28 -4 -66q0 -152 109 -152q55 0 95.5 36t52.5 91h75q-25 -89 -87.5 -139.5t-151.5 -50.5q-169 0 -169 206q0 33 5 75h-56l12 57h52q5 18 9 36.5
t6 28.5t4 16h-53l12 57h58q17 54 40.5 98.5t57.5 85.5t82.5 64.5t106.5 23.5q67 0 107.5 -38.5t40.5 -100.5q0 -15 -3 -31z" />
    <glyph glyph-name="uni20B9" unicode="&#x20b9;" 
d="M233 582h231q-6 69 -85 82h-128l12 56h439l-12 -56h-180q25 -35 27 -82h135l-12 -56h-125q-21 -99 -89 -160.5t-176 -80.5l230 -285h-91l-224 282l13 60h11q212 0 251 184h-239z" />
    <glyph glyph-name="uni2113" unicode="&#x2113;" 
d="M526 149l28 -28q-98 -130 -224 -130q-84 0 -115 55t-17 139q0 3 1 7t2 7q-43 -30 -74 -51l-13 40q88 63 99 72l62 288q28 130 86.5 188t124.5 58q63 0 86 -47t8 -119q-37 -173 -307 -385l-6 -31q-16 -85 10 -126.5t78 -41.5q48 0 93.5 31.5t77.5 73.5zM340 555l-52 -245
q102 88 164 164t78 151q26 118 -56 118q-37 0 -75 -45.5t-59 -142.5z" />
    <glyph glyph-name="trademark" unicode="&#x2122;" 
d="M752 742l-59 -278h-60l47 224h-2l-126 -224h-36l-34 224h-1l-47 -224h-60l59 278h97l28 -164l97 164h97zM399 742l-12 -54h-85l-47 -224h-66l47 224h-85l12 54h236z" />
    <glyph glyph-name="Omega" unicode="&#x2126;" 
d="M328 0l31 144q44 3 81.5 25t62.5 58t41 74.5t25 80.5q10 47 11 93.5t-8.5 92.5t-40.5 74.5t-81 28.5q-49 0 -94.5 -27.5t-77 -71t-52.5 -90.5t-31 -93q-10 -59 -7.5 -113t37 -92t96.5 -40l-31 -144h-250l13 63h175l9 41q-82 21 -109.5 106.5t-6.5 185.5q13 62 43 121
t73 108t102.5 79t125.5 30q44 0 82 -17.5t70 -57t39.5 -104.5t-9.5 -159q-12 -60 -39.5 -118t-76 -108t-106.5 -65l-9 -42h157l-13 -63h-232z" />
    <glyph glyph-name="estimated" unicode="&#x212e;" 
d="M658 252h-484q-4 0 -4 -4v-146q0 -10 6 -17q77 -79 184 -79q116 0 192 89h43q-40 -48 -102.5 -76t-133.5 -28q-124 0 -211.5 78.5t-87.5 189.5q0 112 87.5 190.5t211.5 78.5t211.5 -78.5t87.5 -190.5v-7zM548 271v147q0 11 -7 18q-79 76 -181 76q-106 0 -183 -79
q-7 -7 -7 -18v-144q0 -5 4 -5h371q3 0 3 5z" />
    <glyph glyph-name="oneeighth" unicode="&#x215b;" 
d="M397 105q-7 -33 10 -51.5t50 -18.5q34 0 58.5 18t31.5 52q7 33 -9.5 51.5t-50.5 18.5q-33 0 -58 -18.5t-32 -51.5zM572 280q6 29 -7 45.5t-42 16.5q-62 0 -77 -68q-5 -26 9.5 -41.5t40.5 -15.5q61 0 76 63zM449 -7q-55 0 -84.5 29.5t-17.5 82.5q11 57 72 94
q-31 34 -21 81q10 48 47.5 76t86.5 28t74.5 -28t15.5 -76q-11 -48 -57 -81q44 -34 32 -94q-12 -54 -52.5 -83t-95.5 -29zM334 742l-76 -354h68l-8 -42h-188l8 42h70l63 293l-78 -22l10 45zM599 720h58l-483 -720h-56z" />
    <glyph glyph-name="threeeighths" unicode="&#x215c;" 
d="M397 105q-7 -33 10 -51.5t50 -18.5q34 0 58.5 18t31.5 52q7 33 -9.5 51.5t-50.5 18.5q-33 0 -58 -18.5t-32 -51.5zM572 280q6 29 -7 45.5t-42 16.5q-62 0 -77 -68q-5 -26 9.5 -41.5t40.5 -15.5q61 0 76 63zM449 -7q-55 0 -84.5 29.5t-17.5 82.5q11 57 72 94
q-31 34 -21 81q10 48 47.5 76t86.5 28t74.5 -28t15.5 -76q-11 -48 -57 -81q44 -34 32 -94q-12 -54 -52.5 -83t-95.5 -29zM206 637l-37 24q23 33 57 53t70 20q46 0 72 -28t16 -73q-11 -50 -62 -78q55 -28 41 -97q-11 -51 -51.5 -83t-92.5 -32q-43 0 -67 18.5t-41 57.5l51 26
q8 -31 21.5 -45.5t44.5 -14.5t54 18.5t30 49.5q7 37 -10.5 58t-54.5 19l-18 -1l10 44q32 -2 60.5 15t34.5 49q5 24 -9 39.5t-38 15.5q-44 0 -81 -55zM587 720h58l-483 -720h-56z" />
    <glyph glyph-name="fiveeighths" unicode="&#x215d;" 
d="M397 105q-7 -33 10 -51.5t50 -18.5q34 0 58.5 18t31.5 52q7 33 -9.5 51.5t-50.5 18.5q-33 0 -58 -18.5t-32 -51.5zM572 280q6 29 -7 45.5t-42 16.5q-62 0 -77 -68q-5 -26 9.5 -41.5t40.5 -15.5q61 0 76 63zM449 -7q-55 0 -84.5 29.5t-17.5 82.5q11 57 72 94
q-31 34 -21 81q10 48 47.5 76t86.5 28t74.5 -28t15.5 -76q-11 -48 -57 -81q44 -34 32 -94q-12 -54 -52.5 -83t-95.5 -29zM392 720l-9 -42h-133l-33 -112q29 17 56 17q51 0 75 -33.5t13 -84.5q-12 -55 -51 -92t-93 -37q-64 0 -92 68l45 28q14 -54 59 -54q29 0 51.5 25
t29.5 56q7 33 -3.5 57.5t-41.5 24.5q-35 0 -66 -43l-47 10l61 212h179zM588 720h58l-483 -720h-56z" />
    <glyph glyph-name="seveneighths" unicode="&#x215e;" 
d="M449 -7q-55 0 -84.5 29.5t-17.5 82.5q11 57 72 94q-31 34 -21 81q10 48 47.5 76t86.5 28t74.5 -28t15.5 -76q-11 -48 -57 -81q44 -34 32 -94q-12 -54 -52.5 -83t-95.5 -29zM397 105q-7 -33 10 -51.5t50 -18.5q34 0 58.5 18t31.5 52q7 33 -9.5 51.5t-50.5 18.5
q-33 0 -58 -18.5t-32 -51.5zM572 280q6 29 -7 45.5t-42 16.5q-62 0 -77 -68q-5 -26 9.5 -41.5t40.5 -15.5q61 0 76 63zM211 720h224l-230 -377h-54l208 335h-157zM559 720h58l-483 -720h-56z" />
    <glyph glyph-name="uni2190" unicode="&#x2190;" 
d="M196 382h460v-44h-460q13 -20 31 -63t18 -60q0 -16 -14 -16q-8 0 -21 20q-56 83 -125 123q-21 10 -21 18t21 18q69 40 125 123q13 20 21 20q14 0 14 -16q0 -17 -18 -60t-31 -63z" />
    <glyph glyph-name="arrowup" unicode="&#x2191;" 
d="M382 524v-460h-44v460q-20 -13 -63 -31t-60 -18q-16 0 -16 14q0 8 20 21q83 56 123 125q10 21 18 21t18 -21q40 -69 123 -125q20 -13 20 -21q0 -14 -16 -14q-17 0 -60 18t-63 31z" />
    <glyph glyph-name="uni2192" unicode="&#x2192;" 
d="M64 382h460q-13 20 -31 63t-18 60q0 16 14 16q8 0 21 -20q56 -83 125 -123q21 -10 21 -18t-21 -18q-69 -40 -125 -123q-13 -20 -21 -20q-14 0 -14 16q0 17 18 60t31 63h-460v44z" />
    <glyph glyph-name="arrowdown" unicode="&#x2193;" 
d="M382 656v-460q20 13 63 31t60 18q16 0 16 -14q0 -8 -20 -21q-83 -56 -123 -125q-10 -21 -18 -21t-18 21q-40 69 -123 125q-20 13 -20 21q0 14 16 14q17 0 60 -18t63 -31v460h44z" />
    <glyph glyph-name="arrowboth" unicode="&#x2194;" 
d="M524 338h-328q13 -20 31 -63t18 -60q0 -16 -14 -16q-8 0 -21 20q-56 83 -125 123q-21 10 -21 18t21 18q69 40 125 123q13 20 21 20q14 0 14 -16q0 -17 -18 -60t-31 -63h328q-13 20 -31 63t-18 60q0 16 14 16q8 0 21 -20q56 -83 125 -123q21 -10 21 -18t-21 -18
q-69 -40 -125 -123q-13 -20 -21 -20q-14 0 -14 16q0 17 18 60t31 63z" />
    <glyph glyph-name="arrowupdn" unicode="&#x2195;" 
d="M338 196v328q-20 -13 -63 -31t-60 -18q-16 0 -16 14q0 8 20 21q83 56 123 125q10 21 18 21t18 -21q40 -69 123 -125q20 -13 20 -21q0 -14 -16 -14q-17 0 -60 18t-63 31v-328q20 13 63 31t60 18q16 0 16 -14q0 -8 -20 -21q-83 -56 -123 -125q-10 -21 -18 -21t-18 21
q-40 69 -123 125q-20 13 -20 21q0 14 16 14q17 0 60 -18t63 -31z" />
    <glyph glyph-name="arrowupdnbse" unicode="&#x21a8;" 
d="M338 261v328q-20 -13 -63 -31t-60 -18q-16 0 -16 14q0 8 20 21q83 56 123 125q10 21 18 21t18 -21q40 -69 123 -125q20 -13 20 -21q0 -14 -16 -14q-17 0 -60 18t-63 31v-328q20 13 63 31t60 18q16 0 16 -14q0 -8 -20 -21q-83 -56 -123 -125q-10 -21 -18 -21t-18 21
q-40 69 -123 125q-20 13 -20 21q0 14 16 14q17 0 60 -18t63 -31zM521 44v-44h-322v44h322z" />
    <glyph glyph-name="partialdiff" unicode="&#x2202;" 
d="M201 700l-26 47q73 58 176 58q110 0 188 -101.5t78 -288.5q0 -119 -30 -213.5t-93.5 -153t-151.5 -58.5q-98 0 -151 71t-53 167q0 116 67 188.5t160 72.5q68 0 116.5 -36t67.5 -71h1q1 13 1 49q0 142 -60.5 230.5t-145.5 88.5q-84 0 -144 -50zM347 45h1q77 0 128.5 77.5
t64.5 190.5q-15 44 -60.5 83t-105.5 39q-69 0 -119.5 -60t-50.5 -145q0 -81 39 -133t103 -52z" />
    <glyph glyph-name="Delta" unicode="&#x2206;" 
d="M6 1l11 49l404 693h77l107 -692l-11 -50h-588zM86 56h447l-63 416q-25 172 -27 195h-5q-9 -18 -100 -177z" />
    <glyph glyph-name="product" unicode="&#x220f;" 
d="M698 662h-101v-760h-65v760h-278v-760h-66v760h-100v60h610v-60z" />
    <glyph glyph-name="summation" unicode="&#x2211;" 
d="M251 657l200 -277l-207 -317h302v-63h-371v72l198 309l-198 269v70h367v-63h-291z" />
    <glyph glyph-name="minus" unicode="&#x2212;" 
d="M645 393v-66h-550v66h550z" />
    <glyph glyph-name="uni2215" unicode="&#x2215;" 
d="M293 720h58l-483 -720h-56z" />
    <glyph glyph-name="uni2219" unicode="&#x2219;" 
d="M305 360q7 33 35 55t61 22t52 -22t12 -55t-35.5 -55.5t-61.5 -22.5t-51.5 22.5t-11.5 55.5z" />
    <glyph glyph-name="radical" unicode="&#x221a;" 
d="M150 443h157l68 -249l178 601h193v-66h-143l-230 -776l-116 424h-107v66z" />
    <glyph glyph-name="infinity" unicode="&#x221e;" 
d="M382 302q-68 -99 -153 -99q-64 0 -99 45.5t-35 111.5q0 63 36.5 110t97.5 47q46 0 81.5 -26t71.5 -71q71 97 154 97q61 0 97 -45t36 -108q0 -65 -33.5 -113t-96.5 -48q-12 0 -22.5 1.5t-21 5.5t-18.5 7.5t-18.5 11t-16 12t-16 15l-14.5 14.5t-15.5 16t-14.5 16zM165 360
q0 -36 15 -63.5t48 -27.5q61 0 115 91q-54 91 -115 91q-33 0 -48 -27.5t-15 -63.5zM599 360q0 36 -15 63.5t-48 27.5q-61 0 -115 -91q54 -91 115 -91q33 0 48 27.5t15 63.5z" />
    <glyph glyph-name="intersection" unicode="&#x2229;" 
d="M650 0h-70v432q0 100 -67 168t-153 68t-153 -68t-67 -168v-432h-70v433q0 127 83.5 214t206.5 87t206.5 -87t83.5 -214v-433z" />
    <glyph glyph-name="integral" unicode="&#x222b;" 
d="M532 864l-12 -46q-18 12 -40 12q-34 0 -54 -24q-40 -44 -40 -187q0 -79 8 -260t8 -264q0 -139 -47 -208q-34 -49 -98 -49q-40 0 -69 18l13 48q23 -13 50 -13q33 0 50 23q40 49 40 182q0 84 -8 267t-8 262q0 159 56 216q38 38 94 38q33 0 57 -15z" />
    <glyph glyph-name="approxequal" unicode="&#x2248;" 
d="M243 496q43 0 127 -37t107 -37q35 0 65 30t47 68l52 -38q-27 -52 -69.5 -89t-93.5 -37q-26 0 -73 17t-71 28q-69 29 -91 29q-28 0 -50.5 -14.5t-33.5 -28.5t-29 -43l-52 39q32 55 69.5 84t95.5 29zM264 372q43 0 127 -37t107 -37q36 0 66.5 22.5t45.5 55.5l52 -38
q-24 -48 -66.5 -77t-96.5 -29q-11 0 -25.5 3t-32.5 9t-29.5 10.5t-31.5 12.5l-25 10q-69 29 -91 29q-17 0 -31 -5.5t-27 -20.5t-19.5 -23t-20 -30.5t-15.5 -26.5l-52 39q18 31 31 49.5t33.5 40.5t45.5 32.5t55 10.5z" />
    <glyph glyph-name="notequal" unicode="&#x2260;" 
d="M349 256l-68 -131l-54 25l55 106h-170v64h204l39 79h-243v65h276q9 19 31.5 61.5t33.5 67.5q47 -24 54 -28l-53 -101h174v-65h-207l-40 -79h247v-64h-279z" />
    <glyph glyph-name="equivalence" unicode="&#x2261;" 
d="M635 511v-66h-550v66h550zM635 393v-66h-550v66h550zM635 275v-66h-550v66h550z" />
    <glyph glyph-name="lessequal" unicode="&#x2264;" 
d="M546 720l43 -54l-325 -239l325 -239l-43 -54l-396 293zM158 0v66h424v-66h-424z" />
    <glyph glyph-name="greaterequal" unicode="&#x2265;" 
d="M150 666l43 54l396 -293l-396 -293l-43 54l325 239zM158 0v66h424v-66h-424z" />
    <glyph glyph-name="dotmath" unicode="&#x22c5;" 
d="M342 360q0 15 10.5 25.5t25.5 10.5t25.5 -10.5t10.5 -25.5t-10.5 -25.5t-25.5 -10.5t-25.5 10.5t-10.5 25.5z" />
    <glyph glyph-name="house" unicode="&#x2302;" 
d="M650 0h-580v406l290 169l290 -169v-406zM100 30h520v361l-260 152l-260 -152v-361z" />
    <glyph glyph-name="uni2304" unicode="&#x2304;" 
d="M163 680h74l123 -242l123 242h74l-164 -323h-66z" />
    <glyph glyph-name="revlogicalnot" unicode="&#x2310;" 
d="M134 0h-44v276h540v-44h-496v-232z" />
    <glyph glyph-name="uni2319" unicode="&#x2319;" 
d="M90 276h44v-232h496v-44h-540v276z" />
    <glyph glyph-name="integraltp" unicode="&#x2320;" 
d="M326 -288v269q0 210 25 314q45 188 171 188q55 0 96.5 -45t41.5 -102q0 -28 -13 -48.5t-40 -20.5q-51 0 -64 95q-2 17 -4 26t-10.5 20.5t-22.5 11.5q-30 0 -51.5 -35t-32.5 -74q-26 -96 -26 -332v-267h-70z" />
    <glyph glyph-name="integralbt" unicode="&#x2321;" 
d="M396 792v-269q0 -210 -25 -314q-45 -188 -171 -188q-55 0 -96.5 45t-41.5 102q0 28 13 48.5t40 20.5q51 0 64 -95q2 -17 4 -26t10.5 -20.5t22.5 -11.5q30 0 51.5 35t32.5 74q26 96 26 332v267h70z" />
    <glyph glyph-name="uni2500" unicode="&#x2500;" 
d="M40 216v72h640v-72h-640z" />
    <glyph glyph-name="uni2502" unicode="&#x2502;" 
d="M324 -288v1080h72v-1080h-72z" />
    <glyph glyph-name="uni250C" unicode="&#x250c;" 
d="M324 -288v576h356v-72h-284v-504h-72z" />
    <glyph glyph-name="uni2510" unicode="&#x2510;" 
d="M396 288v-576h-72v504h-284v72h356z" />
    <glyph glyph-name="uni2514" unicode="&#x2514;" 
d="M324 216v576h72v-504h284v-72h-356z" />
    <glyph glyph-name="uni2518" unicode="&#x2518;" 
d="M396 792v-576h-356v72h284v504h72z" />
    <glyph glyph-name="uni251C" unicode="&#x251c;" 
d="M324 -288v1080h72v-504h284v-72h-284v-504h-72z" />
    <glyph glyph-name="uni2524" unicode="&#x2524;" 
d="M40 216v72h284v504h72v-1080h-72v504h-284z" />
    <glyph glyph-name="uni252C" unicode="&#x252c;" 
d="M40 216v72h640v-72h-284v-504h-72v504h-284z" />
    <glyph glyph-name="uni2534" unicode="&#x2534;" 
d="M40 216v72h284v504h72v-504h284v-72h-640z" />
    <glyph glyph-name="uni253C" unicode="&#x253c;" 
d="M40 216v72h284v504h72v-504h284v-72h-284v-504h-72v504h-284z" />
    <glyph glyph-name="uni2550" unicode="&#x2550;" 
d="M40 144v72h640v-72h-640zM40 288v72h640v-72h-640z" />
    <glyph glyph-name="uni2551" unicode="&#x2551;" 
d="M252 -288v1080h72v-1080h-72zM396 -288v1080h72v-1080h-72z" />
    <glyph glyph-name="uni2552" unicode="&#x2552;" 
d="M324 -288v648h356v-72h-284v-72h284v-72h-284v-432h-72z" />
    <glyph glyph-name="uni2553" unicode="&#x2553;" 
d="M680 288v-72h-212v-504h-72v504h-72v-504h-72v576h428z" />
    <glyph glyph-name="uni2554" unicode="&#x2554;" 
d="M252 -288v648h428v-72h-356v-576h-72zM396 -288v504h284v-72h-212v-432h-72z" />
    <glyph glyph-name="uni2555" unicode="&#x2555;" 
d="M396 360v-648h-72v432h-284v72h284v72h-284v72h356z" />
    <glyph glyph-name="uni2556" unicode="&#x2556;" 
d="M40 216v72h428v-576h-72v504h-72v-504h-72v504h-212z" />
    <glyph glyph-name="uni2557" unicode="&#x2557;" 
d="M40 144v72h284v-504h-72v432h-212zM40 288v72h428v-648h-72v576h-356z" />
    <glyph glyph-name="uni2558" unicode="&#x2558;" 
d="M324 144v648h72v-432h284v-72h-284v-72h284v-72h-356z" />
    <glyph glyph-name="uni2559" unicode="&#x2559;" 
d="M252 216v576h72v-504h72v504h72v-504h212v-72h-428z" />
    <glyph glyph-name="uni255A" unicode="&#x255a;" 
d="M252 144v648h72v-576h356v-72h-428zM396 288v504h72v-432h212v-72h-284z" />
    <glyph glyph-name="uni255B" unicode="&#x255b;" 
d="M396 792v-648h-356v72h284v72h-284v72h284v432h72z" />
    <glyph glyph-name="uni255C" unicode="&#x255c;" 
d="M468 792v-576h-428v72h212v504h72v-504h72v504h72z" />
    <glyph glyph-name="uni255D" unicode="&#x255d;" 
d="M40 144v72h356v576h72v-648h-428zM40 288v72h212v432h72v-504h-284z" />
    <glyph glyph-name="uni255E" unicode="&#x255e;" 
d="M680 216v-72h-284v-432h-72v1080h72v-432h284v-72h-284v-72h284z" />
    <glyph glyph-name="uni255F" unicode="&#x255f;" 
d="M252 -288v1080h72v-1080h-72zM396 -288v1080h72v-504h212v-72h-212v-504h-72z" />
    <glyph glyph-name="uni2560" unicode="&#x2560;" 
d="M252 -288v1080h72v-1080h-72zM396 -288v504h284v-72h-212v-432h-72zM396 288v504h72v-432h212v-72h-284z" />
    <glyph glyph-name="uni2561" unicode="&#x2561;" 
d="M40 144v72h284v72h-284v72h284v432h72v-1080h-72v432h-284z" />
    <glyph glyph-name="uni2562" unicode="&#x2562;" 
d="M40 216v72h212v504h72v-1080h-72v504h-212zM396 -288v1080h72v-1080h-72z" />
    <glyph glyph-name="uni2563" unicode="&#x2563;" 
d="M396 -288v1080h72v-1080h-72zM324 792v-504h-284v72h212v432h72zM324 216v-504h-72v432h-212v72h284z" />
    <glyph glyph-name="uni2564" unicode="&#x2564;" 
d="M40 144v72h640v-72h-284v-432h-72v432h-284zM40 288v72h640v-72h-640z" />
    <glyph glyph-name="uni2565" unicode="&#x2565;" 
d="M40 216v72h640v-72h-212v-504h-72v504h-72v-504h-72v504h-212z" />
    <glyph glyph-name="uni2566" unicode="&#x2566;" 
d="M40 144v72h284v-504h-72v432h-212zM40 288v72h640v-72h-640zM396 -288v504h284v-72h-212v-432h-72z" />
    <glyph glyph-name="uni2567" unicode="&#x2567;" 
d="M40 144v72h640v-72h-640zM40 288v72h284v432h72v-432h284v-72h-640z" />
    <glyph glyph-name="uni2568" unicode="&#x2568;" 
d="M40 216v72h212v504h72v-504h72v504h72v-504h212v-72h-640z" />
    <glyph glyph-name="uni2569" unicode="&#x2569;" 
d="M40 144v72h640v-72h-640zM40 288v72h212v432h72v-504h-284zM396 288v504h72v-432h212v-72h-284z" />
    <glyph glyph-name="uni256A" unicode="&#x256a;" 
d="M40 144v72h284v72h-284v72h284v432h72v-432h284v-72h-284v-72h284v-72h-284v-432h-72v432h-284z" />
    <glyph glyph-name="uni256B" unicode="&#x256b;" 
d="M40 216v72h212v504h72v-504h72v504h72v-504h212v-72h-212v-504h-72v504h-72v-504h-72v504h-212z" />
    <glyph glyph-name="uni256C" unicode="&#x256c;" 
d="M40 144v72h284v-504h-72v432h-212zM40 288v72h212v432h72v-504h-284zM396 -288v504h284v-72h-212v-432h-72zM396 288v504h72v-432h212v-72h-284z" />
    <glyph glyph-name="upblock" unicode="&#x2580;" 
d="M60 252v540h600v-540h-600z" />
    <glyph glyph-name="dnblock" unicode="&#x2584;" 
d="M60 -288v540h600v-540h-600z" />
    <glyph glyph-name="block" unicode="&#x2588;" 
d="M60 -288v1080h600v-1080h-600z" />
    <glyph glyph-name="lfblock" unicode="&#x258c;" 
d="M60 -288v1080h300v-1080h-300z" />
    <glyph glyph-name="rtblock" unicode="&#x2590;" 
d="M360 -288v1080h300v-1080h-300z" />
    <glyph glyph-name="ltshade" unicode="&#x2591;" 
d="M60 -288v98h100v-98h-100zM260 -288v98h100v-98h-100zM460 -288v98h100v-98h-100zM60 694v98h100v-98h-100zM260 694v98h100v-98h-100zM460 694v98h100v-98h-100zM60 497v98h100v-98h-100zM260 497v98h100v-98h-100zM460 497v98h100v-98h-100zM60 -91v98h100v-98h-100z
M260 -91v98h100v-98h-100zM460 -91v98h100v-98h-100zM60 105v98h100v-98h-100zM260 105v98h100v-98h-100zM460 105v98h100v-98h-100zM60 301v98h100v-98h-100zM260 301v98h100v-98h-100zM460 301v98h100v-98h-100z" />
    <glyph glyph-name="shade" unicode="&#x2592;" 
d="M60 -288v97h99v-97h-99zM260 -288v97h99v-97h-99zM460 -288v97h99v-97h-99zM60 695v97h99v-97h-99zM260 695v97h99v-97h-99zM460 695v97h99v-97h-99zM60 499v97h99v-97h-99zM260 499v97h99v-97h-99zM460 499v97h99v-97h-99zM60 -92v97h99v-97h-99zM260 -92v97h99v-97h-99
zM460 -92v97h99v-97h-99zM60 105v97h99v-97h-99zM260 105v97h99v-97h-99zM460 105v97h99v-97h-99zM60 302v97h99v-97h-99zM260 302v97h99v-97h-99zM460 302v97h99v-97h-99zM160 597v97h99v-97h-99zM360 597v97h99v-97h-99zM560 597v97h100v-97h-100zM160 400v97h99v-97h-99z
M360 400v97h99v-97h-99zM560 400v97h100v-97h-100zM560 203v97h100v-97h-100zM360 203v97h99v-97h-99zM160 203v97h99v-97h-99zM160 6v97h99v-97h-99zM360 6v97h99v-97h-99zM560 6v97h100v-97h-100zM560 -190v97h100v-97h-100zM360 -190v97h99v-97h-99zM160 -190v97h99v-97
h-99z" />
    <glyph glyph-name="dkshade" unicode="&#x2593;" 
d="M198 -92h-138v97h138v-97zM260 -190h-138v97h138v-97zM260 6h-138v97h138v-97zM198 -288h-138v97h138v-97zM398 -92h-138v97h138v-97zM460 -190h-138v97h138v-97zM460 6h-138v97h138v-97zM398 -288h-138v97h138v-97zM598 -92h-138v97h138v-97zM660 -190h-138v97h138v-97z
M660 6h-138v97h138v-97zM598 -288h-138v97h138v-97zM260 597h-138v97h138v-97zM198 695h-138v97h138v-97zM198 499h-138v97h138v-97zM460 597h-138v97h138v-97zM398 695h-138v97h138v-97zM398 499h-138v97h138v-97zM660 597h-138v97h138v-97zM598 695h-138v97h138v-97z
M598 499h-138v97h138v-97zM198 105h-138v97h138v-97zM260 203h-138v97h138v-97zM398 105h-138v97h138v-97zM460 203h-138v97h138v-97zM598 105h-138v97h138v-97zM660 203h-138v97h138v-97zM198 302h-138v97h138v-97zM260 400h-138v97h138v-97zM398 302h-138v97h138v-97z
M460 400h-138v97h138v-97zM598 302h-138v97h138v-97zM660 400h-138v97h138v-97z" />
    <glyph glyph-name="uni25A0" unicode="&#x25a0;" 
d="M160 100v400h400v-400h-400z" />
    <glyph glyph-name="filledrect" unicode="&#x25ac;" 
d="M100 260v200h400v-200h-400z" />
    <glyph glyph-name="triagup" unicode="&#x25b2;" 
d="M106 122l254 474l254 -474h-508z" />
    <glyph glyph-name="uni25B6" unicode="&#x25b6;" 
d="M123 106v508l474 -254z" />
    <glyph glyph-name="triagdn" unicode="&#x25bc;" 
d="M360 122l-254 474h508z" />
    <glyph glyph-name="uni25C0" unicode="&#x25c0;" 
d="M597 614v-508l-474 254z" />
    <glyph glyph-name="lozenge" unicode="&#x25ca;" 
d="M621 361l-218 -408h-54l-216 408l218 409h54zM559 359l-161 303q-6 12 -21 51h-2q-9 -27 -21 -51l-159 -299l162 -304q11 -21 19 -51h3q10 31 19 50z" />
    <glyph glyph-name="circle" unicode="&#x25cb;" 
d="M131 252q0 94 67.5 161.5t161.5 67.5t161.5 -67.5t67.5 -161.5t-67.5 -161.5t-161.5 -67.5t-161.5 67.5t-67.5 161.5zM173 252q0 -77 55 -132t132 -55t132 55t55 132t-55 132t-132 55t-132 -55t-55 -132z" />
    <glyph glyph-name="invbullet" unicode="&#x25d8;" 
d="M60 -288v1080h600v-1080h-600zM237 252q0 -52 35.5 -87.5t87.5 -35.5q51 0 87 36t36 87q0 50 -36.5 86.5t-86.5 36.5t-86.5 -36.5t-36.5 -86.5z" />
    <glyph glyph-name="invcircle" unicode="&#x25d9;" 
d="M60 -288v1080h600v-1080h-600zM131 252q0 -94 67.5 -161.5t161.5 -67.5t161.5 67.5t67.5 161.5t-67.5 161.5t-161.5 67.5t-161.5 -67.5t-67.5 -161.5zM173 252q0 77 55 132t132 55t132 -55t55 -132t-55 -132t-132 -55t-132 55t-55 132z" />
    <glyph glyph-name="smileface" unicode="&#x263a;" 
d="M70 330q0 122 84 206t206 84t206 -84t84 -206t-84 -206t-206 -84t-206 84t-84 206zM360 605q-115 0 -194.5 -79.5t-79.5 -195.5t79.5 -195.5t194.5 -79.5t194.5 79.5t79.5 195.5t-79.5 195.5t-194.5 79.5zM192 429q0 21 14.5 35.5t35.5 14.5t35.5 -14.5t14.5 -35.5
t-14.5 -35.5t-35.5 -14.5t-35.5 14.5t-14.5 35.5zM428 429q0 21 14.5 35.5t35.5 14.5t35.5 -14.5t14.5 -35.5t-14.5 -35.5t-35.5 -14.5t-35.5 14.5t-14.5 35.5zM360 110q-89 0 -140 62q-26 31 -16 60q5 17 15 7q1 -2 3 -5q50 -90 138 -90t138 90q9 16 17 2q11 -21 -7 -52
q-3 -6 -8 -12q-51 -62 -140 -62z" />
    <glyph glyph-name="invsmileface" unicode="&#x263b;" 
d="M70 330q0 122 84 206t206 84t206 -84t84 -206t-84 -206t-206 -84t-206 84t-84 206zM192 429q0 -21 14.5 -35.5t35.5 -14.5t35.5 14.5t14.5 35.5t-14.5 35.5t-35.5 14.5t-35.5 -14.5t-14.5 -35.5zM428 429q0 -21 14.5 -35.5t35.5 -14.5t35.5 14.5t14.5 35.5t-14.5 35.5
t-35.5 14.5t-35.5 -14.5t-14.5 -35.5zM360 110q89 0 140 62q26 31 16 60q-5 17 -15 7q-1 -2 -3 -5q-50 -90 -138 -90t-138 90q-9 16 -17 2q-11 -21 7 -52q3 -6 8 -12q51 -62 140 -62z" />
    <glyph glyph-name="sun" unicode="&#x263c;" 
d="M226 319q0 -58 36 -96t95 -38q61 0 99.5 38.5t37.5 95.5q-1 58 -38.5 96t-97.5 38q-60 -1 -96 -39t-36 -95zM467 448l88 87l23 -22l-88 -88q29 -32 36 -90h124v-32h-125q-7 -52 -38 -84l88 -88l-23 -23l-87 87q-36 -34 -89 -42v-123h-32v123q-58 8 -89 37l-87 -87l-22 23
l87 87q-34 37 -39 90h-124v32h124q-1 57 35 96l-87 87l22 24l88 -88q35 27 92 31v125h32v-125q48 -2 91 -37z" />
    <glyph glyph-name="female" unicode="&#x2640;" 
d="M378 0h-36v171h-126v36h126v109q-65 11 -104.5 57t-39.5 107q0 67 47.5 113.5t114.5 46.5q68 0 115 -46.5t47 -113.5q0 -61 -39 -107t-105 -57v-109h126v-36h-126v-171zM230 478q0 -55 37.5 -92.5t91.5 -37.5q55 0 93 37.5t38 92.5t-38 92.5t-93 37.5q-54 0 -91.5 -37.5
t-37.5 -92.5z" />
    <glyph glyph-name="male" unicode="&#x2642;" 
d="M365 140q39 39 38.5 92t-38.5 91q-39 40 -92.5 40t-91.5 -39q-39 -39 -39 -91.5t40 -92.5q38 -38 91 -38.5t92 38.5zM375 359l170 171l-104 38v2h170v-170h-2l-39 104l-170 -170q38 -55 33.5 -115t-47.5 -103q-47 -47 -114 -46t-114 48q-48 48 -48 114t47 113
q43 44 102.5 48.5t115.5 -34.5z" />
    <glyph glyph-name="spade" unicode="&#x2660;" 
d="M602 0h-484l4 22q229 7 229 247h-2q-22 -50 -62 -80t-93 -30t-92 37.5t-39 90.5q0 37 22 75t39.5 55.5t60.5 54.5q7 7 11 10q69 59 108 109.5t55 120.5h2q16 -70 55 -120.5t108 -109.5q71 -61 93 -89q40 -52 40 -106q0 -53 -39 -90.5t-92 -37.5t-93 30t-62 80h-2
q0 -240 229 -247z" />
    <glyph glyph-name="uni2662" unicode="&#x2662;" 
d="M360 712q108 -166 297 -362q-189 -196 -297 -362q-108 166 -297 362q189 196 297 362zM360 11q94 147 277 339q-183 192 -277 339q-94 -147 -277 -339q183 -192 277 -339z" />
    <glyph glyph-name="club" unicode="&#x2663;" 
d="M563 0h-406l6 21q46 11 77 26t59 44.5t42 80t14 124.5h-2q-18 -54 -60 -96t-93 -42q-62 0 -99.5 49t-37.5 113q0 55 30.5 107.5t78.5 52.5q38 0 86 -30q-32 62 -32 106q0 59 36.5 107.5t97.5 48.5t97.5 -48.5t36.5 -107.5q0 -44 -32 -106q48 30 86 30q48 0 78.5 -52.5
t30.5 -107.5q0 -64 -37.5 -113t-99.5 -49q-51 0 -93 42t-60 96h-2q0 -74 14 -124.5t42 -80t59 -44.5t77 -26z" />
    <glyph glyph-name="heart" unicode="&#x2665;" 
d="M361 -12h-2q-13 56 -46 118.5t-58.5 99.5t-75.5 104q-34 45 -55.5 78.5t-41 82.5t-19.5 92q0 63 40.5 106t103.5 43q56 0 98 -43.5t54 -101.5h2q12 58 54 101.5t98 43.5q63 0 103.5 -43t40.5 -106q0 -43 -19.5 -92t-41 -82.5t-55.5 -78.5q-50 -67 -75.5 -104t-58.5 -99.5
t-46 -118.5z" />
    <glyph glyph-name="diamond" unicode="&#x2666;" 
d="M360 712q108 -166 297 -362q-189 -196 -297 -362q-108 166 -297 362q189 196 297 362z" />
    <glyph glyph-name="musicalnote" unicode="&#x266a;" 
d="M346 181v531h44v-63l23 -29l39 -46q102 -120 102 -246q0 -98 -59 -166h-29q43 73 43 154q0 61 -31.5 116.5t-87.5 64.5v-314q0 -84 -43 -128.5t-112 -44.5q-32 0 -50.5 16.5t-18.5 47.5q0 47 38.5 82.5t85.5 35.5q31 0 56 -11z" />
    <glyph glyph-name="uni266C" unicode="&#x266c;" 
d="M545 202v280l-309 -93v-241q0 -87 -43 -131t-113 -44q-31 0 -50 16.5t-19 46.5q0 48 38.5 83t86.5 35q31 0 56 -11v469l397 112v-517q0 -87 -43 -131t-113 -44q-31 0 -50 16.5t-19 46.5q0 48 38.5 83t86.5 35q31 0 56 -11zM236 468l309 94v72l-309 -94v-72z" />
    <glyph glyph-name="uni0044_uni004D" unicode="&#xe001;" 
d="M521 361l174 359h49l-153 -720h-50l116 548h-2l-170 -353h-2l-20 353l-2 -2l-116 -546h-50l153 720h49l22 -359h2zM3 0l153 720h121q48 0 73 -31t29.5 -111t-26.5 -218q-42 -199 -99 -279.5t-138 -80.5h-113zM195 667l-131 -614h60q29 0 50 10.5t43.5 42t43.5 94
t42 160.5q21 100 26 164t-5.5 93.5t-26.5 39.5t-43 10h-59z" />
    <glyph glyph-name="zero.slash" unicode="&#xf638;" 
d="M535 533l-312 -402q7 -35 29.5 -58.5t57.5 -23.5q22 0 41 7t42 27t42.5 53.5t39.5 90.5t36 133q23 111 24 173zM221 223l302 390q-25 58 -80 58q-135 0 -198 -305q-5 -23 -13 -69l-12 -69l-1 -5h2zM456 734q43 0 73.5 -16t47 -39t24.5 -60t9 -67t-4 -73t-9 -65t-11 -54
q-7 -30 -9 -40t-11.5 -46.5t-17 -55.5t-22 -54.5t-29 -55.5t-36 -46.5t-45 -40.5t-54.5 -24.5t-65 -10.5t-60 11t-43 26t-27.5 42t-15.5 48.5t-5 57t1 54.5t6.5 54.5t7.5 45t7 35.5q24 113 50 174q83 200 238 200z" />
    <glyph glyph-name="fi" unicode="&#xfb01;" 
d="M508 473h-200l-101 -473h-75l101 473h-99l13 63h99l7 32q17 76 74 121t124 45q15 0 31.5 -2.5t27.5 -5t29 -9t25.5 -10t27.5 -12.5t25 -11l-17 -83q-7 4 -43.5 27t-62 33t-51.5 10q-96 0 -117 -109l-5 -26h275l-114 -536h-75z" />
    <glyph glyph-name="fl" unicode="&#xfb02;" 
d="M318 536h145l-13 -63h-145l-101 -473h-75l101 473h-99l13 63h99l7 32q17 76 74.5 121t123.5 45q45 0 86.5 -14.5t103.5 -45.5l-143 -674h-75l134 629q-5 3 -20 11l-22.5 12t-20.5 9t-24.5 7.5t-23.5 2.5q-96 0 -118 -102z" />
    <glyph glyph-name="f_i" 
d="M508 473h-200l-101 -473h-75l101 473h-99l13 63h99l7 32q17 76 74 121t124 45q15 0 31.5 -2.5t27.5 -5t29 -9t25.5 -10t27.5 -12.5t25 -11l-17 -83q-7 4 -43.5 27t-62 33t-51.5 10q-96 0 -117 -109l-5 -26h275l-114 -536h-75z" />
    <glyph glyph-name="f_l" 
d="M318 536h145l-13 -63h-145l-101 -473h-75l101 473h-99l13 63h99l7 32q17 76 74.5 121t123.5 45q45 0 86.5 -14.5t103.5 -45.5l-143 -674h-75l134 629q-5 3 -20 11l-22.5 12t-20.5 9t-24.5 7.5t-23.5 2.5q-96 0 -118 -102z" />
    <glyph glyph-name="a.superior" 
d="M447 495l13 59q-29 11 -51 11q-28 0 -46 -18.5t-25 -47.5q-4 -21 4 -37t28 -16q32 0 77 49zM493 319l-13 -59h-261l13 59h261zM536 601l-24 -114q-10 -53 -5 -94l-63 -8l-4 31q-46 -29 -84 -29q-51 0 -72.5 33t-10.5 84q12 55 53.5 87.5t96.5 32.5q22 0 50 -7
q7 23 -1 40.5t-31 17.5q-14 0 -31 -5t-39.5 -14t-33.5 -12l4 71q80 19 114 19q54 0 74 -36.5t7 -96.5z" />
    <glyph glyph-name="o.superior" 
d="M499 319l-13 -59h-261l13 59h261zM382 387q-66 0 -94.5 47t-11.5 126q16 76 62.5 125t117.5 49q67 0 95 -48t11 -125q-16 -76 -62.5 -125t-117.5 -49zM395 446q76 0 101 114q4 27 5 52.5t-14 44t-44 18.5q-76 0 -101 -115q-4 -26 -5 -51.5t14 -44t44 -18.5z" />
    <glyph glyph-name="one.superior" 
d="M334 742l-76 -354h68l-8 -42h-188l8 42h70l63 293l-78 -22l10 45z" />
    <glyph glyph-name="two.superior" 
d="M172 392h172l-9 -42h-222l5 22q13 57 43 92t89 77q20 14 29 21t27 21.5t27.5 28.5t12.5 28q5 24 -5 38t-34 14q-31 0 -50.5 -22t-27.5 -54h-51q13 52 49.5 85t88.5 33q46 0 68 -25.5t12 -69.5q-7 -35 -40 -68t-69 -55t-70.5 -55.5t-44.5 -68.5z" />
    <glyph glyph-name="three.superior" 
d="M230 530l9 42q32 -2 60.5 15.5t34.5 49.5q5 24 -9 39.5t-38 15.5q-44 0 -81 -55l-37 24q23 33 57 53t70 20q46 0 72 -28t16 -73q-11 -50 -62 -78q55 -28 41 -97q-11 -51 -51.5 -83t-92.5 -32q-43 0 -67 18.5t-41 57.5l51 26q8 -31 21.5 -45.5t44.5 -14.5t54.5 19t29.5 49
q9 41 -11 58.5t-71 18.5z" />
  </font>
</defs>
</svg>
